<svg xmlns="http://www.w3.org/2000/svg" xmlns:xlink="http://www.w3.org/1999/xlink" width="294.477" height="370.967" viewBox="0 0 294.477 370.967"><defs><clipPath id="a"><rect width="188.261" height="290.701" fill="none"/></clipPath><clipPath id="b"><rect width="290.701" height="193.801" fill="none"/></clipPath><clipPath id="c"><rect width="294.477" height="370.967" fill="none"/></clipPath></defs><g transform="translate(-1071.667 -125.533)"><g transform="translate(1177.578 193.867)" clip-path="url(#a)"><g transform="translate(-1177.578 -193.867)"><g transform="translate(1177.578 484.568) rotate(-90)"><path d="M188.607,188.607,0,0V188.607Z" transform="translate(0.237 5.653)" fill="#ffc400"/><path d="M1.585,3.171h0A1.59,1.59,0,0,1,0,1.585H0A1.59,1.59,0,0,1,1.585,0h0A1.59,1.59,0,0,1,3.171,1.585h0A1.59,1.59,0,0,1,1.585,3.171Z" transform="translate(12.495 63.364)" fill="#30a7a1"/><path d="M1.585,3.171h0A1.59,1.59,0,0,1,0,1.585H0A1.59,1.59,0,0,1,1.585,0h0A1.59,1.59,0,0,1,3.171,1.585h0A1.59,1.59,0,0,1,1.585,3.171Z" transform="translate(34.37 174.032)" fill="#30a7a1"/><path d="M1.585,3.171h0A1.59,1.59,0,0,1,0,1.585H0A1.59,1.59,0,0,1,1.585,0h0A1.59,1.59,0,0,1,3.17,1.585h0A1.589,1.589,0,0,1,1.585,3.171Z" transform="translate(32.785 71.894)" fill="#ff3b17"/><path d="M1.585,3.171h0A1.59,1.59,0,0,1,0,1.585H0A1.59,1.59,0,0,1,1.585,0h0A1.59,1.59,0,0,1,3.171,1.585h0A1.59,1.59,0,0,1,1.585,3.171Z" transform="translate(110.844 168.746)" fill="#ff3b17"/><path d="M1.585,3.171h0A1.59,1.59,0,0,1,0,1.585H0A1.59,1.59,0,0,1,1.585,0h0A1.59,1.59,0,0,1,3.171,1.585h0A1.59,1.59,0,0,1,1.585,3.171Z" transform="translate(10.976 147.011)" fill="#ff3b17"/><g transform="translate(0 0)"><g clip-path="url(#b)"><g transform="translate(-16.828 156.117)"><path d="M42.337,31.561S39.992,18.024,31.976,12.493,5.308,4.242,0,0" transform="translate(1.119 7.44)" fill="none" stroke="#001521" stroke-miterlimit="10" stroke-width="1"/><path d="M9.211,11.272S-1.361,5.484.147,1.22,8.975,4.745,9.211,11.272Z" transform="translate(0.613)" fill="#001521"/><path d="M9.876.131S3.687,7.178.7,5.309,4.879-.8,9.876.131Z" transform="translate(0 11.134)" fill="#001521"/><path d="M7.433,8.695S-1,4.373.1.99,7.109,3.572,7.433,8.695Z" transform="translate(11.182 5.106)" fill="#001521"/><path d="M9.876.131S3.687,7.178.7,5.309,4.879-.8,9.876.131Z" transform="translate(9.059 13.709)" fill="#001521"/><path d="M7.433,8.7S-1,4.373.1.991,7.109,3.572,7.433,8.7Z" transform="translate(20.949 8.648)" fill="#001521"/><path d="M9.876.131S3.687,7.177.7,5.309,4.879-.8,9.876.131Z" transform="translate(18.826 17.251)" fill="#001521"/></g><g transform="translate(-3.628 31.543)"><path d="M0,.015A20.323,20.323,0,0,0,5.664,8.593c4.314,3.864,10.547,1.721,10.547,1.721S13.778,3.975,8.365,1.844,0,.015,0,.015Z" transform="translate(20.907 15.73)" fill="#ff3b17"/><path d="M13.3.215A66.345,66.345,0,0,1,10.823,8.4,12.106,12.106,0,0,1,7.072,13.86,14.165,14.165,0,0,0,.662,22.184,16.315,16.315,0,0,0,.106,28.63a.271.271,0,1,0,.536-.083,16.03,16.03,0,0,1,.541-6.212,13.354,13.354,0,0,1,5.192-7.382.268.268,0,0,0,.046-.017,5.979,5.979,0,0,0,1.055-.694,17.66,17.66,0,0,1,2.754-1.3,24.252,24.252,0,0,1,14.633-.723,22.877,22.877,0,0,1,6.094,2.487.27.27,0,0,0,.4-.319.265.265,0,0,0-.107-.136A22.925,22.925,0,0,0,25.019,11.7a24.8,24.8,0,0,0-14.98.735c-.42.157-.82.325-1.206.5a13.893,13.893,0,0,0,2.5-4.351A66.94,66.94,0,0,0,13.83.327.268.268,0,0,0,13.82.18a.271.271,0,0,0-.52.035Z" transform="translate(0 4.547)" fill="#ff3b17"/><path d="M0,15.343S5.5,11.863,7.719,7.4,8.884,0,8.884,0A9.462,9.462,0,0,0,2.595,6.059C.983,10.985,0,15.343,0,15.343Z" transform="translate(10.094)" fill="#ff3b17"/></g><g transform="translate(-25.118 73.72)"><path d="M27.942,64.313l-.306-.075C24.695,63.506,1.511,57.461.162,48.3-1.28,38.526,7.293,42.06,11.287,43.36s6.418,1.76,6.038-.633S4.822,36.5,2.809,30.047s2.338-9.152,7.481-4.69,8.66,5.46,9.136,2.687-8.066-5.468-7.781-10.207,3.257-4.778,6.315-1.355,6.054,5.167,6.688,1.981S16.527,7.3,22.709,1.989s9.913.976,9.651,7.5,3.613,9.668,5.3,7.124,3.281-9.144,6.411-6.521,2.163,8.519-1.142,11.268-4.8,7.258-.9,6.632,5.65-6.7,9.438-2.4-.991,11.8-5.334,15.095-4.1,5.752-.357,5.539,8.059-1.275,7.892,3.154S47.649,60.423,40.287,61.73" fill="#30a7a1"/><path d="M0,91.31S10.411,93.958,19.4,70.1s5.416-39.762,2.223-47.577S15.4,4.44,18.466,0" transform="translate(6.909 0.438)" fill="none" stroke="#ffde40" stroke-linecap="round" stroke-linejoin="round" stroke-width="1.748"/><path d="M.016,22.552s-.411-5.53,2.992-9.3S12.086,7.173,12.989,0" transform="translate(31.184 10.533)" fill="none" stroke="#ffde40" stroke-linecap="round" stroke-linejoin="round" stroke-width="1.748"/><path d="M0,0A14.943,14.943,0,0,0,6.257,6.549c4.494,2.419,11.239,4.706,12.667,9.113" transform="translate(11.891 16.427)" fill="none" stroke="#ffde40" stroke-linecap="round" stroke-linejoin="round" stroke-width="1.748"/><path d="M0,15.973s2.321-5.733,7.61-6.488S19.185,5.686,21.023,0" transform="translate(31.764 28.186)" fill="none" stroke="#ffde40" stroke-linecap="round" stroke-linejoin="round" stroke-width="1.748"/><path d="M0,8.916S4.86,3.231,11.208,3.348,21.358,4.108,23.8,0" transform="translate(30.018 49.45)" fill="none" stroke="#ffde40" stroke-linecap="round" stroke-linejoin="round" stroke-width="1.748"/><path d="M28.375,22.309s-1.83-6.076-11.041-9.342S.248,6.579,0,0" transform="translate(3.52 24.211)" fill="none" stroke="#ffde40" stroke-linecap="round" stroke-linejoin="round" stroke-width="1.748"/><path d="M0,0S.813,5.592,8.316,7.275s20.8,5.407,19.923,10.813" transform="translate(0.992 43.061)" fill="none" stroke="#ffde40" stroke-linecap="round" stroke-linejoin="round" stroke-width="1.748"/></g><g transform="translate(-3.875 168.716)"><path d="M45.32,2.634A34.593,34.593,0,0,0,23.553,1.089C11.739,4.241,1.763,15.547,0,25.247c0,0,20.558.73,31.952-4.065S45.32,2.634,45.32,2.634Z" transform="translate(61.511)" fill="#30a7a1"/><path d="M0,.018A21.9,21.9,0,0,1,9.411,1.965" transform="translate(95.979 5.607)" fill="none" stroke="#fff" stroke-miterlimit="10" stroke-width="1"/><path d="M0,5.992S2.027,2.515,2.122,0" transform="translate(94.638 0.171)" fill="none" stroke="#fff" stroke-miterlimit="10" stroke-width="1"/><path d="M0,.156a15.111,15.111,0,0,1,7.74.914c4.028,1.628,6.762,4.5,9.545,4.062" transform="translate(84.125 9.808)" fill="none" stroke="#fff" stroke-miterlimit="10" stroke-width="1"/><path d="M0,10.571s.83-.466,1.849-4.4S3.435,0,3.435,0" transform="translate(79.896 1.616)" fill="none" stroke="#fff" stroke-miterlimit="10" stroke-width="1"/><path d="M0,10.756A17.308,17.308,0,0,0,1.291,5.168,27.531,27.531,0,0,1,1.931,0" transform="translate(74.605 5.004)" fill="none" stroke="#fff" stroke-miterlimit="10" stroke-width="1"/><path d="M0,.346a9.974,9.974,0,0,1,7.273.81c3.74,1.987,6.825,2.9,9.413,2.623" transform="translate(69.102 19.535)" fill="none" stroke="#fff" stroke-miterlimit="10" stroke-width="1"/><path d="M106.831,0A129.286,129.286,0,0,0,81.706,8.457C70.228,13.977,27.305,57,0,31.645" transform="translate(0 2.634)" fill="none" stroke="#fff" stroke-miterlimit="10" stroke-width="1"/></g></g></g></g></g></g><g transform="translate(1121.317 341.209) rotate(-90)"><path d="M41.843,96.309s-.159-.038-.458-.112C36.981,95.1,2.263,86.048.242,72.336c-2.159-14.643,10.68-9.35,16.661-7.4s9.612,2.635,9.042-.948S7.22,54.655,4.207,45s3.5-13.705,11.2-7.024S28.378,46.149,29.091,42,17.012,33.807,17.439,26.711s4.878-7.155,9.457-2.029,9.066,7.738,10.016,2.967S24.75,10.929,34.007,2.979,48.851,4.44,48.459,14.206s5.41,14.477,7.938,10.668S61.31,11.181,66,15.109s3.239,12.757-1.71,16.874S57.1,42.852,62.946,41.915s8.461-10.026,14.133-3.594-1.485,17.668-7.988,22.6-6.147,8.614-.535,8.294,12.068-1.91,11.818,4.724-9.02,16.541-20.044,18.5" transform="translate(0)" fill="#30a7a1"/><path d="M0,136.737s15.59,3.967,29.045-31.762,8.111-59.543,3.329-71.247S23.065,6.648,27.653,0" transform="translate(10.346 0.656)" fill="none" stroke="#ffde40" stroke-linecap="round" stroke-linejoin="round" stroke-width="1.748"/><path d="M.023,33.772S-.593,25.49,4.5,19.846,18.1,10.742,19.451,0" transform="translate(46.699 15.773)" fill="none" stroke="#ffde40" stroke-linecap="round" stroke-linejoin="round" stroke-width="1.748"/><path d="M0,0A22.376,22.376,0,0,0,9.37,9.807C16.1,13.429,26.2,16.855,28.339,23.454" transform="translate(17.807 24.599)" fill="none" stroke="#ffde40" stroke-linecap="round" stroke-linejoin="round" stroke-width="1.748"/><path d="M0,23.92s3.476-8.585,11.4-9.715S28.729,8.514,31.482,0" transform="translate(47.567 42.209)" fill="none" stroke="#ffde40" stroke-linecap="round" stroke-linejoin="round" stroke-width="1.748"/><path d="M0,13.352S7.279,4.838,16.785,5.014,31.983,6.152,35.639,0" transform="translate(44.953 74.052)" fill="none" stroke="#ffde40" stroke-linecap="round" stroke-linejoin="round" stroke-width="1.748"/><path d="M42.492,33.408s-2.741-9.1-16.534-13.99S.371,9.852,0,0" transform="translate(5.271 36.256)" fill="none" stroke="#ffde40" stroke-linecap="round" stroke-linejoin="round" stroke-width="1.748"/><path d="M0,0S1.217,8.375,12.454,10.894s31.146,8.1,29.835,16.193" transform="translate(1.485 64.484)" fill="none" stroke="#ffde40" stroke-linecap="round" stroke-linejoin="round" stroke-width="1.748"/></g><g transform="matrix(0.839, -0.545, 0.545, 0.839, 1108.376, 178.082)"><path d="M41.843,96.309s-.159-.038-.458-.112C36.981,95.1,2.263,86.048.242,72.336c-2.159-14.643,10.68-9.35,16.661-7.4s9.612,2.635,9.042-.948S7.22,54.655,4.207,45s3.5-13.705,11.2-7.024S28.378,46.149,29.091,42,17.012,33.807,17.439,26.711s4.878-7.155,9.458-2.029,9.066,7.738,10.016,2.967S24.75,10.929,34.007,2.979,48.851,4.44,48.459,14.206s5.41,14.477,7.938,10.668S61.31,11.181,66,15.109s3.239,12.757-1.71,16.874S57.1,42.852,62.946,41.915s8.461-10.026,14.133-3.594-1.485,17.668-7.988,22.6-6.147,8.614-.535,8.294,12.068-1.91,11.818,4.724-9.019,16.541-20.044,18.5" transform="translate(0 0)" fill="#30a7a1"/><path d="M0,136.737s15.59,3.967,29.045-31.762,8.111-59.543,3.33-71.247S23.065,6.648,27.653,0" transform="translate(10.347 0.656)" fill="none" stroke="#ffde40" stroke-linecap="round" stroke-linejoin="round" stroke-width="1.748"/><path d="M.023,33.772S-.593,25.49,4.5,19.846,18.1,10.742,19.451,0" transform="translate(46.699 15.773)" fill="none" stroke="#ffde40" stroke-linecap="round" stroke-linejoin="round" stroke-width="1.748"/><path d="M0,0A22.375,22.375,0,0,0,9.37,9.807C16.1,13.429,26.2,16.855,28.339,23.454" transform="translate(17.808 24.599)" fill="none" stroke="#ffde40" stroke-linecap="round" stroke-linejoin="round" stroke-width="1.748"/><path d="M0,23.92S3.476,15.336,11.4,14.2,28.729,8.514,31.482,0" transform="translate(47.567 42.209)" fill="none" stroke="#ffde40" stroke-linecap="round" stroke-linejoin="round" stroke-width="1.748"/><path d="M0,13.352S7.278,4.838,16.785,5.014,31.983,6.152,35.639,0" transform="translate(44.953 74.052)" fill="none" stroke="#ffde40" stroke-linecap="round" stroke-linejoin="round" stroke-width="1.748"/><path d="M42.492,33.408s-2.741-9.1-16.534-13.99S.371,9.852,0,0" transform="translate(5.271 36.256)" fill="none" stroke="#ffde40" stroke-linecap="round" stroke-linejoin="round" stroke-width="1.748"/><path d="M0,0S1.217,8.375,12.454,10.894s31.146,8.1,29.835,16.193" transform="translate(1.486 64.484)" fill="none" stroke="#ffde40" stroke-linecap="round" stroke-linejoin="round" stroke-width="1.748"/></g><g transform="translate(1108.768 478.379) rotate(-90)"><path d="M0,.02A27.842,27.842,0,0,0,7.759,11.771c5.91,5.293,14.448,2.357,14.448,2.357s-3.333-8.683-10.748-11.6S0,.02,0,.02Z" transform="translate(28.64 21.549)" fill="#ff3b17"/><path d="M18.219.294A90.866,90.866,0,0,1,14.827,11.5a16.583,16.583,0,0,1-5.138,7.485A19.4,19.4,0,0,0,.907,30.39a22.356,22.356,0,0,0-.761,8.83.371.371,0,0,0,.734-.114A21.962,21.962,0,0,1,1.62,30.6,18.3,18.3,0,0,1,8.733,20.484a.368.368,0,0,0,.063-.023,8.178,8.178,0,0,0,1.445-.95,24.2,24.2,0,0,1,3.773-1.782,33.223,33.223,0,0,1,20.046-.99,31.337,31.337,0,0,1,8.348,3.407.371.371,0,0,0,.551-.436.365.365,0,0,0-.147-.186,31.415,31.415,0,0,0-8.538-3.5,33.971,33.971,0,0,0-20.521,1.006c-.575.215-1.124.445-1.652.685a19.031,19.031,0,0,0,3.422-5.96A91.688,91.688,0,0,0,18.946.448a.371.371,0,0,0-.727-.153Z" transform="translate(0 6.229)" fill="#ff3b17"/><path d="M0,21.019s7.534-4.768,10.574-10.875S12.17,0,12.17,0A12.962,12.962,0,0,0,3.555,8.3C1.347,15.048,0,21.019,0,21.019Z" transform="translate(13.827)" fill="#ff3b17"/></g><g transform="translate(1131.675 239.317) rotate(-90)"><path d="M0,.02A27.842,27.842,0,0,0,7.759,11.771c5.91,5.293,14.448,2.357,14.448,2.357s-3.333-8.683-10.748-11.6S0,.02,0,.02Z" transform="translate(28.64 21.549)" fill="#ff3b17"/><path d="M18.219.294A90.866,90.866,0,0,1,14.827,11.5a16.583,16.583,0,0,1-5.138,7.485A19.4,19.4,0,0,0,.907,30.39a22.356,22.356,0,0,0-.761,8.83.371.371,0,0,0,.734-.114A21.962,21.962,0,0,1,1.62,30.6,18.3,18.3,0,0,1,8.733,20.484a.368.368,0,0,0,.063-.023,8.178,8.178,0,0,0,1.445-.95,24.2,24.2,0,0,1,3.773-1.782,33.223,33.223,0,0,1,20.046-.99,31.337,31.337,0,0,1,8.348,3.407.371.371,0,0,0,.551-.436.365.365,0,0,0-.147-.186,31.415,31.415,0,0,0-8.538-3.5,33.971,33.971,0,0,0-20.521,1.006c-.575.215-1.124.445-1.652.685a19.031,19.031,0,0,0,3.422-5.96A91.688,91.688,0,0,0,18.946.448a.371.371,0,0,0-.727-.153Z" transform="translate(0 6.229)" fill="#ff3b17"/><path d="M0,21.019s7.534-4.768,10.574-10.875S12.17,0,12.17,0A12.962,12.962,0,0,0,3.555,8.3C1.347,15.048,0,21.019,0,21.019Z" transform="translate(13.827)" fill="#ff3b17"/></g><g transform="translate(1071.667 125.533)" clip-path="url(#c)"><g transform="translate(98.881)"><path d="M165.09,266.93l11.469,28.215h23.8l15.87-28.215S289.409,349.8,242.676,398.3c-20.535,21.309-51.1,32.1-78.992,18.65C101.153,386.8,133.259,307.653,165.09,266.93Z" transform="translate(-127.944 -266.93)" fill="#ad351a"/><path d="M242.666,307.535c-20.535,21.309-51.1,32.1-78.992,18.65-23.387-11.276-33.532-29.407-35.406-49.809-2.19,26.259,6.478,50.706,35.406,64.65,27.889,13.445,58.457,2.659,78.992-18.65,13.333-13.833,16.9-30.466,15.187-47.181A54.1,54.1,0,0,1,242.666,307.535Z" transform="translate(-127.934 -191.008)" fill="#7a160c"/><g transform="translate(75.7 49.85)"><path d="M175.834,292.053a20.229,20.229,0,1,1-20.229-20.229A20.227,20.227,0,0,1,175.834,292.053Z" transform="translate(-135.376 -271.824)" fill="#dcd041"/><path d="M156.908,283.078A10.278,10.278,0,1,1,146.631,272.8,10.281,10.281,0,0,1,156.908,283.078Z" transform="translate(-126.402 -262.849)" fill="#240604"/></g><g transform="translate(13.199 49.85)"><path d="M169.7,292.053a20.229,20.229,0,1,1-20.229-20.229A20.227,20.227,0,0,1,169.7,292.053Z" transform="translate(-129.24 -271.824)" fill="#dcd041"/><circle cx="10.277" cy="10.277" r="10.277" transform="translate(9.953 9.952)" fill="#240604"/></g><path d="M154.617,275.3l14.769,42.17a3.224,3.224,0,0,1-3.046,4.3H135.763a3.227,3.227,0,0,1-3.035-4.34l15.391-42.169a3.211,3.211,0,0,1,3.035-2.129h.418A3.234,3.234,0,0,1,154.617,275.3Z" transform="translate(-85.854 -209.996)" fill="#240604"/><path d="M204.461,281.084c-27.39,16.837-36.537-2.231-36.537-2.231s-10.359,19.007-37.23,1.885" transform="translate(-102.676 -157.406)" fill="none" stroke="#240604" stroke-linecap="round" stroke-linejoin="round" stroke-width="0.209"/></g><g transform="translate(217.137 70.079)"><path d="M159.834,427.517c2.18-1.661,18.6,2.546,23.581.489,27.3-11.286,15.747-42.139,5.867-61.859-7.365-14.719-15.686-30.955-15.146-48.281.163-4.951,4.685-44,11.907-40.887l62.837,27.115s-32.615,25.567,14.994,103.153-44.085,119.023-76.945,119.023l-47.375-3.534,5.3-83.749S159.753,427.578,159.834,427.517Z" transform="translate(-139.554 -246.329)" fill="#ad351a"/><path d="M263.874,390.405c-47.609-77.586-14.994-103.153-14.994-103.153s-8.882-3.83-19.964-8.617c-6.906,9.513-19.139,38.339,18.334,99.414,47.609,77.576-44.074,119.013-76.934,119.013l-30.059-2.231-.7,11.062,47.375,3.534C219.789,509.427,311.483,467.981,263.874,390.405Z" transform="translate(-139.554 -229.488)" fill="#7a160c"/><path d="M143.405,499.98S256.744,474.647,202.3,387.211s-3.626-108.358-3.626-108.358" transform="translate(-104.179 -227.485)" fill="none" stroke="#7a160c" stroke-linecap="round" stroke-linejoin="round" stroke-width="0.628"/><path d="M246.13,325.178a51.363,51.363,0,1,1-51.357-51.368A51.359,51.359,0,0,1,246.13,325.178Z" transform="translate(-104.179 -273.81)" fill="#ad351a"/><path d="M206.75,274.3a51.366,51.366,0,0,1-62.236,78.463A51.361,51.361,0,1,0,206.75,274.3Z" transform="translate(-93.992 -269.281)" fill="#7a160c"/><path d="M150.017,483.158s30.741-47.507,4.563-108.083,4.879-106.077,31.8-98.192c10.237,3,19.72,7.181,24.324,17.56,11.215,25.312-28.521,62.042-43.372,32.789-2.1-4.146-1.976-9.137-.662-13.6s3.718-8.5,6.1-12.5" transform="translate(-92.426 -253.751)" fill="none" stroke="#7a160c" stroke-linecap="round" stroke-linejoin="round" stroke-width="0.628"/></g><g transform="translate(91.065 135.779)"><path d="M161.565,280.26s9.7,10.573-9.7,32.615,6.06,161.345,6.06,161.345-26.341-1.762-30.751,20.28h55.544l5.286-63.479,11.327-.887s5.429,38.789,29.234,40.561c0,0-17.632,4.4-25.566,20.27h50.247V478.631s59.954,13.221,44.971-78.472c0,0-31.74-81.855-67-99.558V280.26Z" transform="translate(-127.177 -280.26)" fill="#ad351a"/><path d="M161.565,280.26s9.7,10.573-9.7,32.615,6.06,161.345,6.06,161.345-26.341-1.762-30.751,20.28h55.544l5.286-63.479,11.327-.887s5.429,38.789,29.234,40.561c0,0-17.632,4.4-25.566,20.27h50.247V478.631s59.954,13.221,44.971-78.472c0,0-31.74-81.855-67-99.558V280.26Z" transform="translate(-127.177 -280.26)" fill="#ad351a"/><path d="M161.565,280.26s9.7,10.573-9.7,32.615,6.06,161.345,6.06,161.345-26.341-1.762-30.751,20.28h55.544l5.286-63.479,11.327-.887s5.429,38.789,29.234,40.561c0,0-17.632,4.4-25.566,20.27h50.247V478.631s59.954,13.221,44.971-78.472c0,0-31.74-81.855-67-99.558V280.26Z" transform="translate(-127.177 -280.26)" fill="#ad351a"/><g transform="translate(10.675)"><path d="M134.3,301.9s-.153-.835-.428-2.394a29.4,29.4,0,0,0-5.643,2.638A37.705,37.705,0,0,1,134.3,301.9Z" transform="translate(-128.225 -103.431)" fill="#7a160c"/><path d="M147.528,295.418l-11.327.876-4.91,58.966h13.629l4.319-51.816A78.3,78.3,0,0,1,147.528,295.418Z" transform="translate(-100.052 -141.019)" fill="#7a160c"/><path d="M267.208,400.159s-31.739-81.855-67-99.558V280.26H130.553a10.449,10.449,0,0,1,2.048,4.512h53.588v20.351c35.274,17.7,67,99.558,67,99.558,7.711,47.13-4.39,66.535-17.958,74.265C251.929,476.889,277.608,463.78,267.208,400.159Z" transform="translate(-106.84 -280.26)" fill="#7a160c"/></g><line y1="72.786" x2="4.632" transform="translate(57.023 89.57)" stroke-width="0.628" stroke="#7a160c" stroke-linecap="round" stroke-linejoin="round" fill="none"/><path d="M173.285,361.844a55.4,55.4,0,0,0-28.236,6.121s-26.524-55.88,12.631-74.011,44.441,67.889,44.441,67.889" transform="translate(-43.658 -177.529)" fill="none" stroke="#7a160c" stroke-linecap="round" stroke-linejoin="round" stroke-width="0.628"/></g><g transform="translate(0 342.575)"><g transform="translate(26.034)"><rect width="363.308" height="171.785" fill="#f1ecb3"/><path d="M429.131,300.562V441.579H120.792v30.769H484.1V300.562Z" transform="translate(-120.792 -300.562)" fill="#ded9a5"/></g><rect width="408.276" height="31.951" transform="translate(0 171.785)" fill="#63120a"/><g transform="translate(122.032 58.177)"><rect width="171.178" height="68.638" fill="#63120a"/><rect width="154.359" height="56.263" transform="translate(8.409 6.188)" fill="#85180d"/></g></g></g></g></svg>