<svg xmlns="http://www.w3.org/2000/svg" xmlns:xlink="http://www.w3.org/1999/xlink" width="334.635" height="391.759" viewBox="0 0 334.635 391.759"><defs><clipPath id="a"><rect width="155.285" height="157.726" fill="none"/></clipPath><clipPath id="b"><rect width="185.813" height="259.867" fill="none"/></clipPath><clipPath id="c"><rect width="357.813" height="259.334" fill="none"/></clipPath><clipPath id="d"><rect width="266.616" height="391.759" fill="none"/></clipPath></defs><g transform="translate(3 -105.189)"><g transform="translate(176.35 338.73)" clip-path="url(#a)"><g transform="translate(-163.35 -338.73)"><g transform="matrix(0.899, 0.438, -0.438, 0.899, 233.539, 339.141)"><path d="M1633.616,352.624s-.184-.044-.53-.13c-5.1-1.267-45.27-11.743-47.609-27.611-2.5-16.945,12.358-10.819,19.279-8.567s11.122,3.049,10.463-1.1-21.667-10.794-25.154-21.972,4.052-15.859,12.963-8.128,15.007,9.462,15.832,4.656-13.977-9.476-13.483-17.687,5.645-8.28,10.944-2.347,10.491,8.954,11.59,3.433-14.073-19.348-3.362-28.547,17.177,1.691,16.723,12.991,6.26,16.753,9.185,12.345,5.686-15.845,11.109-11.3,3.748,14.762-1.979,19.526-8.322,12.577-1.552,11.493,9.791-11.6,16.354-4.159-1.718,20.445-9.243,26.157-7.114,9.968-.619,9.6,13.965-2.21,13.676,5.466-10.437,19.141-23.194,21.406" transform="translate(-1585.197 -241.179)" fill="#30a7a1"/><path d="M1603.023,400.535s18.04,4.59,33.61-36.754,9.386-68.9,3.853-82.444-10.773-31.336-5.463-39.029" transform="translate(-1591.05 -241.55)" fill="none" stroke="#ffde40" stroke-linecap="round" stroke-linejoin="round" stroke-width="1.748"/><path d="M1665.679,307.433s-.713-9.583,5.185-16.115,15.731-10.535,17.3-22.965" transform="translate(-1611.614 -250.102)" fill="none" stroke="#ffde40" stroke-linecap="round" stroke-linejoin="round" stroke-width="1.748"/><path d="M1615.877,283.56a25.892,25.892,0,0,0,10.843,11.348c7.786,4.191,19.476,8.155,21.949,15.792" transform="translate(-1595.271 -255.095)" fill="none" stroke="#ffde40" stroke-linecap="round" stroke-linejoin="round" stroke-width="1.748"/><path d="M1667.148,341.579s4.022-9.934,13.187-11.242,20.057-6.585,23.243-16.437" transform="translate(-1612.105 -265.056)" fill="none" stroke="#ffde40" stroke-linecap="round" stroke-linejoin="round" stroke-width="1.748"/><path d="M1662.644,384.21s8.422-9.853,19.423-9.649,17.587,1.317,21.817-5.8" transform="translate(-1610.626 -283.069)" fill="none" stroke="#ffde40" stroke-linecap="round" stroke-linejoin="round" stroke-width="1.748"/><path d="M1643.448,342.3s-3.172-10.53-19.132-16.188-29.609-11.07-30.038-22.47" transform="translate(-1588.179 -261.689)" fill="none" stroke="#ffde40" stroke-linecap="round" stroke-linejoin="round" stroke-width="1.748"/><path d="M1587.757,352.275s1.408,9.691,14.411,12.606,36.041,9.37,34.523,18.738" transform="translate(-1586.038 -277.657)" fill="none" stroke="#ffde40" stroke-linecap="round" stroke-linejoin="round" stroke-width="1.748"/></g></g></g><g transform="matrix(0.899, 0.438, -0.438, 0.899, 164.276, 220.563)"><path d="M1625.623,352.624s.167-.044.48-.13c4.62-1.267,41.038-11.743,43.158-27.611,2.264-16.945-11.2-10.819-17.477-8.567s-10.082,3.049-9.485-1.1,19.641-10.794,22.8-21.972-3.673-15.859-11.751-8.128-13.6,9.462-14.351,4.656,12.67-9.476,12.222-17.687-5.117-8.28-9.921-2.347-9.51,8.954-10.506,3.433,12.757-19.348,3.048-28.547-15.571,1.691-15.16,12.991-5.675,16.753-8.326,12.345-5.154-15.845-10.071-11.3-3.4,14.762,1.794,19.526,7.544,12.577,1.407,11.493-8.875-11.6-14.825-4.159,1.557,20.445,8.379,26.157,6.448,9.968.561,9.6-12.659-2.21-12.4,5.466,9.461,19.141,21.025,21.406" transform="translate(-1584.977 -241.179)" fill="#30a7a1"/><path d="M1642.432,400.535s-16.353,4.59-30.467-36.754-8.508-68.9-3.493-82.444,9.766-31.336,4.953-39.029" transform="translate(-1568.747 -241.55)" fill="none" stroke="#ffde40" stroke-linecap="round" stroke-linejoin="round" stroke-width="1.748"/><path d="M1686.031,307.433s.646-9.583-4.7-16.115-14.26-10.535-15.679-22.965" transform="translate(-1650.503 -250.102)" fill="none" stroke="#ffde40" stroke-linecap="round" stroke-linejoin="round" stroke-width="1.748"/><path d="M1645.6,283.56a25.262,25.262,0,0,1-9.829,11.348c-7.058,4.191-17.655,8.155-19.9,15.792" transform="translate(-1579.745 -255.095)" fill="none" stroke="#ffde40" stroke-linecap="round" stroke-linejoin="round" stroke-width="1.748"/><path d="M1700.172,341.579s-3.646-9.934-11.954-11.242-18.182-6.585-21.07-16.437" transform="translate(-1665.53 -265.056)" fill="none" stroke="#ffde40" stroke-linecap="round" stroke-linejoin="round" stroke-width="1.748"/><path d="M1700.028,384.21s-7.635-9.853-17.607-9.649-15.942,1.317-19.777-5.8" transform="translate(-1662.644 -283.069)" fill="none" stroke="#ffde40" stroke-linecap="round" stroke-linejoin="round" stroke-width="1.748"/><path d="M1594.278,342.3s2.875-10.53,17.344-16.188,26.84-11.07,27.229-22.47" transform="translate(-1559.842 -261.689)" fill="none" stroke="#ffde40" stroke-linecap="round" stroke-linejoin="round" stroke-width="1.748"/><path d="M1632.181,352.275s-1.276,9.691-13.063,12.606-32.671,9.37-31.3,18.738" transform="translate(-1549.201 -277.657)" fill="none" stroke="#ffde40" stroke-linecap="round" stroke-linejoin="round" stroke-width="1.748"/></g><g transform="translate(41 231.611) rotate(-90)"><path d="M1694.577,172.971a32.25,32.25,0,0,0,8.988,13.611c6.846,6.131,16.736,2.73,16.736,2.73s-3.861-10.058-12.45-13.438S1694.577,172.971,1694.577,172.971Z" transform="translate(-1661.403 -147.988)" fill="#ff3b17"/><path d="M1661.742,144.437a105.241,105.241,0,0,1-3.93,12.982,19.208,19.208,0,0,1-5.952,8.67,22.475,22.475,0,0,0-10.172,13.208,25.9,25.9,0,0,0-.882,10.228.43.43,0,0,0,.85-.132,25.436,25.436,0,0,1,.858-9.857,21.192,21.192,0,0,1,8.239-11.713.423.423,0,0,0,.073-.026,9.465,9.465,0,0,0,1.673-1.1,28.033,28.033,0,0,1,4.37-2.064,38.483,38.483,0,0,1,23.22-1.147,36.3,36.3,0,0,1,9.67,3.947.429.429,0,0,0,.638-.506.423.423,0,0,0-.17-.216,36.391,36.391,0,0,0-9.889-4.049,39.349,39.349,0,0,0-23.77,1.166c-.666.249-1.3.515-1.913.794a22.045,22.045,0,0,0,3.964-6.9,106.215,106.215,0,0,0,3.964-13.1.43.43,0,0,0-.842-.178Z" transform="translate(-1640.639 -136.881)" fill="#ff3b17"/><path d="M1666.68,156.711s8.727-5.523,12.248-12.6,1.849-11.75,1.849-11.75a15.015,15.015,0,0,0-9.979,9.614C1668.24,149.8,1666.68,156.711,1666.68,156.711Z" transform="translate(-1650.664 -132.365)" fill="#ff3b17"/></g><g transform="translate(0 209)" clip-path="url(#b)"><g transform="translate(-1650 -50.985)"><path d="M1869.075,318.889,1650.61,65.57V318.889Z" transform="translate(-0.336 -8.037)" fill="#ffc400"/><path d="M1684.073,218.135h0a1.842,1.842,0,0,1-1.836-1.836h0a1.842,1.842,0,0,1,1.836-1.836h0a1.842,1.842,0,0,1,1.836,1.836h0A1.841,1.841,0,0,1,1684.073,218.135Z" transform="translate(-17.764 -78.525)" fill="#30a7a1"/><path d="M1740.51,503.655h0a1.842,1.842,0,0,1-1.836-1.836h0a1.842,1.842,0,0,1,1.836-1.836h0a1.842,1.842,0,0,1,1.836,1.836h0A1.842,1.842,0,0,1,1740.51,503.655Z" transform="translate(-48.863 -212.561)" fill="#30a7a1"/><path d="M1736.42,240.143h0a1.842,1.842,0,0,1-1.836-1.836h0a1.842,1.842,0,0,1,1.836-1.836h0a1.841,1.841,0,0,1,1.836,1.836h0A1.841,1.841,0,0,1,1736.42,240.143Z" transform="translate(-46.609 -89.097)" fill="#ff3b17"/><path d="M1937.81,490.018h0a1.842,1.842,0,0,1-1.836-1.836h0a1.842,1.842,0,0,1,1.836-1.836h0a1.842,1.842,0,0,1,1.836,1.836h0A1.841,1.841,0,0,1,1937.81,490.018Z" transform="translate(-149.452 -205.047)" fill="#ff3b17"/><path d="M1680.154,433.941h0a1.842,1.842,0,0,1-1.836-1.836h0a1.841,1.841,0,0,1,1.836-1.836h0a1.842,1.842,0,0,1,1.836,1.836h0A1.842,1.842,0,0,1,1680.154,433.941Z" transform="translate(-15.604 -182.186)" fill="#ff3b17"/><g transform="translate(1650 50.985)"><g clip-path="url(#c)"><g transform="translate(-20.713 208.908)"><path d="M1661.585,515.189s-2.887-18.114-12.753-25.515-32.825-11.041-39.358-16.718" transform="translate(-1608.095 -463)" fill="none" stroke="#001521" stroke-miterlimit="10" stroke-width="1"/><path d="M1619.5,468.846s-13.013-7.746-11.157-13.452S1619.214,460.111,1619.5,468.846Z" transform="translate(-1607.412 -453.762)" fill="#001521"/><path d="M1618.741,482.663s-7.618,9.429-11.289,6.929S1612.59,481.421,1618.741,482.663Z" transform="translate(-1606.585 -467.588)" fill="#001521"/><path d="M1644.585,478.571s-10.375-5.784-9.029-10.31S1644.185,471.715,1644.585,478.571Z" transform="translate(-1621.671 -460.103)" fill="#001521"/><path d="M1642.114,489.306s-7.619,9.429-11.29,6.929S1635.963,488.064,1642.114,489.306Z" transform="translate(-1618.807 -470.786)" fill="#001521"/><path d="M1669.782,487.709s-10.375-5.784-9.029-10.31S1669.382,480.854,1669.782,487.709Z" transform="translate(-1634.847 -464.501)" fill="#001521"/><path d="M1667.311,498.445s-7.619,9.429-11.289,6.929S1661.16,497.2,1667.311,498.445Z" transform="translate(-1631.983 -475.185)" fill="#001521"/></g><g transform="translate(-4.466 42.209)"><path d="M1694.577,172.968a27.684,27.684,0,0,0,6.972,11.479c5.31,5.171,12.982,2.3,12.982,2.3s-2.995-8.482-9.657-11.332S1694.577,172.968,1694.577,172.968Z" transform="translate(-1668.844 -151.899)" fill="#ff3b17"/><path d="M1657.009,144.383a94.765,94.765,0,0,1-3.048,10.948,16.233,16.233,0,0,1-4.617,7.312,18.888,18.888,0,0,0-7.89,11.138,23.675,23.675,0,0,0-.684,8.625.339.339,0,0,0,.38.3.36.36,0,0,0,.279-.414,23.264,23.264,0,0,1,.666-8.313,17.925,17.925,0,0,1,6.39-9.878.305.305,0,0,0,.057-.022,7.307,7.307,0,0,0,1.3-.928,21,21,0,0,1,3.389-1.741,27.584,27.584,0,0,1,18.011-.967,27.037,27.037,0,0,1,7.5,3.328.318.318,0,0,0,.462-.107.39.39,0,0,0,.033-.32.353.353,0,0,0-.132-.182,27.105,27.105,0,0,0-7.671-3.415,28.206,28.206,0,0,0-18.438.983c-.516.21-1.01.435-1.484.67a19.03,19.03,0,0,0,3.075-5.822,95.669,95.669,0,0,0,3.075-11.049.388.388,0,0,0-.012-.2.344.344,0,0,0-.245-.233A.335.335,0,0,0,1657.009,144.383Z" transform="translate(-1640.639 -138.011)" fill="#ff3b17"/><path d="M1666.68,152.9s6.77-4.658,9.5-10.623,1.434-9.909,1.434-9.909a11.983,11.983,0,0,0-7.741,8.108C1667.891,147.064,1666.68,152.9,1666.68,152.9Z" transform="translate(-1654.256 -132.365)" fill="#ff3b17"/></g><g transform="translate(-30.916 98.648)"><path d="M1619.59,327.239s-.131-.034-.377-.1c-3.62-.979-32.156-9.068-33.817-21.322-1.774-13.085,8.778-8.355,13.694-6.616s7.9,2.355,7.432-.848-15.39-8.335-17.867-16.967,2.878-12.247,9.208-6.276,10.66,7.307,11.245,3.6-9.928-7.317-9.577-13.658,4.009-6.394,7.773-1.813,7.452,6.914,8.232,2.651-10-14.941-2.388-22.045,12.2,1.305,11.879,10.032,4.447,12.937,6.524,9.533,4.038-12.236,7.891-8.726,2.662,11.4-1.405,15.078-5.911,9.713-1.1,8.875,6.954-8.959,11.616-3.212-1.22,15.788-6.565,20.2-5.053,7.7-.439,7.412,9.919-1.706,9.714,4.221-7.414,14.781-16.475,16.53" transform="translate(-1585.197 -241.179)" fill="#30a7a1"/><path d="M1603.023,364.495s12.814,3.545,23.873-28.382,6.667-53.207,2.737-63.665-7.652-24.2-3.881-30.139" transform="translate(-1594.519 -241.723)" fill="none" stroke="#ffde40" stroke-linecap="round" stroke-linejoin="round" stroke-width="1.748"/><path d="M1665.671,298.531s-.506-7.4,3.683-12.444,11.174-8.135,12.286-17.734" transform="translate(-1627.268 -254.259)" fill="none" stroke="#ffde40" stroke-linecap="round" stroke-linejoin="round" stroke-width="1.748"/><path d="M1615.877,283.56a19.564,19.564,0,0,0,7.7,8.763c5.531,3.236,13.834,6.3,15.591,12.195" transform="translate(-1601.24 -261.578)" fill="none" stroke="#ffde40" stroke-linecap="round" stroke-linejoin="round" stroke-width="1.748"/><path d="M1667.148,335.274s2.857-7.671,9.367-8.681,14.247-5.085,16.51-12.693" transform="translate(-1628.051 -276.181)" fill="none" stroke="#ffde40" stroke-linecap="round" stroke-linejoin="round" stroke-width="1.748"/><path d="M1662.644,380.69s5.982-7.608,13.8-7.451,12.492,1.017,15.5-4.48" transform="translate(-1625.696 -302.587)" fill="none" stroke="#ffde40" stroke-linecap="round" stroke-linejoin="round" stroke-width="1.748"/><path d="M1629.2,333.5s-2.253-8.131-13.59-12.5-21.031-8.548-21.336-17.352" transform="translate(-1589.946 -271.245)" fill="none" stroke="#ffde40" stroke-linecap="round" stroke-linejoin="round" stroke-width="1.748"/><path d="M1587.757,352.275s1,7.483,10.236,9.735,25.6,7.236,24.522,14.47" transform="translate(-1586.536 -294.653)" fill="none" stroke="#ffde40" stroke-linecap="round" stroke-linejoin="round" stroke-width="1.748"/></g><g transform="translate(-4.77 225.767)"><path d="M1854.482,489.79a39.484,39.484,0,0,0-26.792-2.067c-14.542,4.219-26.82,19.347-28.99,32.327,0,0,25.3.977,39.328-5.439S1854.482,489.79,1854.482,489.79Z" transform="translate(-1722.987 -486.266)" fill="#30a7a1"/><path d="M1887.625,500.756s4.825-.46,11.583,2.6" transform="translate(-1769.488 -493.229)" fill="none" stroke="#fff" stroke-miterlimit="10" stroke-width="1"/><path d="M1884.166,494.726s2.5-4.653,2.612-8.018" transform="translate(-1767.679 -486.479)" fill="none" stroke="#fff" stroke-miterlimit="10" stroke-width="1"/><path d="M1857.041,511.778a17.2,17.2,0,0,1,9.527,1.223c4.958,2.179,8.323,6.015,11.748,5.436" transform="translate(-1753.495 -498.446)" fill="none" stroke="#fff" stroke-miterlimit="10" stroke-width="1"/><path d="M1846.132,504.581s1.022-.624,2.276-5.889,1.952-8.257,1.952-8.257" transform="translate(-1747.791 -488.273)" fill="none" stroke="#fff" stroke-miterlimit="10" stroke-width="1"/><path d="M1832.48,513.57a24.813,24.813,0,0,0,1.59-7.478,39.853,39.853,0,0,1,.787-6.915" transform="translate(-1740.652 -492.481)" fill="none" stroke="#fff" stroke-miterlimit="10" stroke-width="1"/><path d="M1818.284,537.129a11.379,11.379,0,0,1,8.952,1.084c4.6,2.659,8.4,3.874,11.587,3.51" transform="translate(-1733.229 -510.525)" fill="none" stroke="#fff" stroke-miterlimit="10" stroke-width="1"/><path d="M1771.5,493.061s-16.7,3.877-30.926,11.316c-14.128,7.387-66.959,64.956-100.568,31.029" transform="translate(-1640.002 -489.537)" fill="none" stroke="#fff" stroke-miterlimit="10" stroke-width="1"/></g></g></g></g></g><g transform="translate(10.701 267.875) rotate(-17)"><path d="M1625.623,352.624s.167-.044.48-.13c4.62-1.267,41.038-11.743,43.158-27.611,2.264-16.945-11.2-10.819-17.477-8.567s-10.082,3.049-9.485-1.1,19.641-10.794,22.8-21.972-3.673-15.859-11.751-8.128-13.6,9.462-14.351,4.656,12.67-9.476,12.222-17.687-5.117-8.28-9.921-2.347-9.51,8.954-10.506,3.433,12.757-19.348,3.048-28.547-15.571,1.691-15.16,12.991-5.675,16.753-8.326,12.345-5.154-15.845-10.071-11.3-3.4,14.762,1.794,19.526,7.544,12.577,1.407,11.493-8.875-11.6-14.825-4.159,1.557,20.445,8.379,26.157,6.448,9.968.561,9.6-12.659-2.21-12.4,5.466,9.461,19.141,21.025,21.406" transform="translate(-1584.977 -241.179)" fill="#30a7a1"/><path d="M1642.432,400.535s-16.353,4.59-30.467-36.754-8.508-68.9-3.493-82.444,9.766-31.336,4.953-39.029" transform="translate(-1568.747 -241.55)" fill="none" stroke="#ffde40" stroke-linecap="round" stroke-linejoin="round" stroke-width="1.748"/><path d="M1686.031,307.433s.646-9.583-4.7-16.115-14.26-10.535-15.679-22.965" transform="translate(-1650.503 -250.102)" fill="none" stroke="#ffde40" stroke-linecap="round" stroke-linejoin="round" stroke-width="1.748"/><path d="M1645.6,283.56a25.262,25.262,0,0,1-9.829,11.348c-7.058,4.191-17.655,8.155-19.9,15.792" transform="translate(-1579.745 -255.095)" fill="none" stroke="#ffde40" stroke-linecap="round" stroke-linejoin="round" stroke-width="1.748"/><path d="M1700.172,341.579s-3.646-9.934-11.954-11.242-18.182-6.585-21.07-16.437" transform="translate(-1665.53 -265.056)" fill="none" stroke="#ffde40" stroke-linecap="round" stroke-linejoin="round" stroke-width="1.748"/><path d="M1700.028,384.21s-7.635-9.853-17.607-9.649-15.942,1.317-19.777-5.8" transform="translate(-1662.644 -283.069)" fill="none" stroke="#ffde40" stroke-linecap="round" stroke-linejoin="round" stroke-width="1.748"/><path d="M1594.278,342.3s2.875-10.53,17.344-16.188,26.84-11.07,27.229-22.47" transform="translate(-1559.842 -261.689)" fill="none" stroke="#ffde40" stroke-linecap="round" stroke-linejoin="round" stroke-width="1.748"/><path d="M1632.181,352.275s-1.276,9.691-13.063,12.606-32.671,9.37-31.3,18.738" transform="translate(-1549.201 -277.657)" fill="none" stroke="#ffde40" stroke-linecap="round" stroke-linejoin="round" stroke-width="1.748"/></g><g transform="translate(-3 105.189)" clip-path="url(#d)"><g transform="translate(-170.437 -240.824)"><g transform="translate(334.957 442.007)"><path d="M254.469,319.365H239.721L211,295.3V475.372h43.465Z" transform="translate(-207.471 -270.797)" fill="#8194b3"/><path d="M223.607,317.038l24.061,26.389v63.645H223.607Z" transform="translate(-167.863 -202.496)" fill="#8194b3"/><g transform="translate(18.127 61.017)"><path d="M225.349,304.117s12.535,4,11.6,21.02v40.125H214.607v-40.54S212.892,308.831,225.349,304.117Z" transform="translate(-214.527 -304.117)" fill="#e6eaf0"/><g transform="translate(2.776 17.784)"><path d="M218.312,346.569h4.01V311.133a2.008,2.008,0,0,0-2.005-2.009h0a2,2,0,0,0-2.005,2.009Z" transform="translate(-205.407 -306.166)" fill="#99afd4"/><path d="M216.731,348.813H221.7a.37.37,0,0,0,.369-.369v-37.18a2.852,2.852,0,0,0-2.854-2.854h0a2.851,2.851,0,0,0-2.85,2.854v37.18A.37.37,0,0,0,216.731,348.813Z" transform="translate(-211.535 -308.41)" fill="#99afd4"/><path d="M.047,0H3.094a.047.047,0,0,1,.047.047V36.529a.362.362,0,0,1-.362.362H.362A.362.362,0,0,1,0,36.529V.047A.047.047,0,0,1,.047,0Z" transform="translate(3.141 40.402) rotate(180)" fill="#99afd4"/></g></g><g transform="translate(9.557 145.298)"><path d="M0,0H20.673a0,0,0,0,1,0,0V21.125a1.18,1.18,0,0,1-1.18,1.18H1.18A1.18,1.18,0,0,1,0,21.125V0A0,0,0,0,1,0,0Z" transform="translate(29.432 47.176) rotate(180)" fill="#2b1506"/><path d="M235.273,343.8H214.6s-.92-8.687,6.914-16.69a4.574,4.574,0,0,1,6.471.012A24.9,24.9,0,0,1,235.273,343.8Z" transform="translate(-205.84 -320.33)" fill="#e6eaf0"/><path d="M212.458,351.095s3.07-18.658,18.733-26.633c0,0,16.293,4.213,19.317,26.633" transform="translate(-212.458 -324.462)" fill="none" stroke="#c1c4cc" stroke-miterlimit="10" stroke-width="0.704"/></g><g transform="translate(50.208 151.367)"><path d="M0,0H17.909a0,0,0,0,1,0,0V18.3a1.022,1.022,0,0,1-1.022,1.022H1.022A1.022,1.022,0,0,1,0,18.3V0A0,0,0,0,1,0,0Z" transform="translate(25.497 40.869) rotate(180)" fill="#2b1506"/><path d="M242.034,342.68H224.125s-.8-7.523,5.99-14.458a3.955,3.955,0,0,1,5.6.012A21.557,21.557,0,0,1,242.034,342.68Z" transform="translate(-216.536 -322.348)" fill="#e6eaf0"/><path d="M222.271,349s2.66-16.16,16.231-23.07c0,0,14.114,3.65,16.732,23.07" transform="translate(-222.271 -325.927)" fill="none" stroke="#c1c4cc" stroke-miterlimit="10" stroke-width="0.61"/></g><path d="M212.356,303.886l3.563-12.262,3.037,12.262h3.221V485.932H210.551V303.886Z" transform="translate(-208.893 -282.361)" fill="#99afd4"/><path d="M216.986,289.388s2.121,15.469,4.528,20.821l.568-15.286.849,14.275H224.2v3.252h-3.608s-4.1-9.072-3.679-12.705c0,0-.352,9.876-3.749,12.705h-3.016v-2.241h1.317l.568-15.286.742,15.286S216.344,294.922,216.986,289.388Z" transform="translate(-210.151 -289.388)" fill="#e6eaf0"/><g transform="translate(42.735 24.785)"><path d="M222.672,308.2l3.563-10.821,3.037,10.821h3.221V468.866H220.868V308.2Z" transform="translate(-219.208 -289.076)" fill="#99afd4"/><path d="M227.306,295.371s2.121,15.464,4.524,20.821l.568-15.286.849,14.271h1.272v3.256h-3.608s-4.093-9.072-3.679-12.705c0,0-.352,9.876-3.749,12.705h-3.016v-2.241h1.322l.563-15.286.746,15.286S226.66,300.905,227.306,295.371Z" transform="translate(-220.467 -295.371)" fill="#e6eaf0"/></g><path d="M230.847,325.748l4.008-10.966,2.592,10.966h3.221v88.414H229.042V325.748Z" transform="translate(-150.784 -209.586)" fill="#99afd4"/><path d="M235.584,312.4s2.125,15.464,4.528,20.821l.568-15.29.849,14.275H242.8v3.256h-3.608s-4.1-9.072-3.679-12.705c0,0-.352,9.876-3.749,12.705h-3.016v-2.241h1.317l.568-15.29.746,15.29S234.942,317.926,235.584,312.4Z" transform="translate(-151.705 -217.083)" fill="#e6eaf0"/></g><rect width="81.036" height="93.363" transform="translate(258.757 552.214)" fill="#8194b3"/><rect width="78.164" height="83.3" transform="translate(258.757 466.846)" fill="#8194b3"/><rect width="34.168" height="28.621" transform="translate(282.427 376.154)" fill="#8194b3"/><rect width="7.928" height="25.937" transform="translate(274.498 377.407)" fill="#c1c4cc"/><rect width="7.928" height="25.937" transform="translate(316.595 377.407)" fill="#c1c4cc"/><rect width="55.095" height="8.049" transform="translate(271.815 369.357)" fill="#8194b3"/><path d="M214.555,240.824l-17.084,75.554h34.168Z" transform="translate(84.956 0)" fill="#8194b3"/><rect width="34.168" height="12.031" transform="translate(282.427 316.378)" fill="#8194b3"/><rect width="34.168" height="47.224" transform="translate(282.427 325.89)" fill="#8194b3"/><rect width="9.36" height="34.619" transform="translate(273.735 337.714)" fill="#8194b3"/><path d="M195.373,275.3s2.95-5.1,4.677-14.619c0,0,1.6,6.284,4.681,14.619Z" transform="translate(78.364 62.413)" fill="#8194b3"/><rect width="9.36" height="34.619" transform="translate(315.535 337.714)" fill="#8194b3"/><path d="M205.463,275.3s2.95-5.1,4.677-14.619a28.556,28.556,0,0,0,4.681,14.619Z" transform="translate(110.073 62.413)" fill="#8194b3"/><rect width="3.46" height="31.641" transform="translate(324.523 436.615)" fill="#cccfcb"/><rect width="3.46" height="11.172" transform="translate(331.508 457.085)" fill="#cccfcb"/><rect width="3.46" height="22.001" transform="translate(329.511 420.124)" fill="#cccfcb"/><g transform="translate(330.118 549.028)"><rect width="6.803" height="82.174" transform="translate(0 9.381)" fill="#c1c4cc"/><rect width="7.169" height="9.381" fill="#c1c4cc"/></g><g transform="translate(316.058 549.028)"><rect width="6.803" height="82.174" transform="translate(0.183 9.381)" fill="#c1c4cc"/><rect width="7.169" height="9.381" fill="#c1c4cc"/></g><g transform="translate(274.427 549.028)"><rect width="6.803" height="82.174" transform="translate(0.183 9.381)" fill="#c1c4cc"/><rect width="7.169" height="9.381" fill="#c1c4cc"/></g><g transform="translate(260.549 549.028)"><rect width="6.803" height="82.174" transform="translate(0.183 9.381)" fill="#c1c4cc"/><rect width="7.169" height="9.381" fill="#c1c4cc"/></g><path d="M197.862,298.984h0a1.744,1.744,0,0,1-1.744-1.744V265.715a1.744,1.744,0,0,1,1.744-1.744h0a1.741,1.741,0,0,1,1.744,1.744V297.24A1.742,1.742,0,0,1,197.862,298.984Z" transform="translate(80.705 72.743)" fill="#e6eaf0"/><rect width="37.563" height="63.144" transform="translate(281.298 404.775)" fill="#8194b3"/><path d="M207.915,298.984h0a1.744,1.744,0,0,1-1.744-1.744V265.715a1.744,1.744,0,0,1,1.744-1.744h0a1.741,1.741,0,0,1,1.744,1.744V297.24A1.742,1.742,0,0,1,207.915,298.984Z" transform="translate(112.298 72.743)" fill="#e6eaf0"/><path d="M205.225,305.974h-7.337v-40.56a3.668,3.668,0,0,1,3.67-3.666h0a3.665,3.665,0,0,1,3.666,3.666Z" transform="translate(86.268 65.754)" fill="#e6eaf0"/><path d="M210.791,305.974h-7.332v-40.56a3.665,3.665,0,0,1,3.666-3.666h0a3.665,3.665,0,0,1,3.666,3.666Z" transform="translate(103.775 65.754)" fill="#e6eaf0"/><path d="M1.053,0H9.322a1.053,1.053,0,0,1,1.053,1.053V44.228a0,0,0,0,1,0,0H0a0,0,0,0,1,0,0V1.053A1.053,1.053,0,0,1,1.053,0Z" transform="translate(293.818 327.5)" fill="#e6eaf0"/><rect width="2.345" height="11.172" transform="translate(264.722 457.085)" fill="#812713"/><path d="M210.563,259.183s1.682,14.039,3.592,18.9l.451-13.882.671,12.962h1.011v2.954h-2.863s-3.252-8.236-2.92-11.533c0,0-.282,8.965-2.974,11.533h-2.394v-2.034h1.044l.452-13.882.588,13.882S210.049,264.2,210.563,259.183Z" transform="translate(109.045 57.696)" fill="#e6eaf0"/><path d="M200.62,259.183s1.682,14.039,3.592,18.9l.452-13.882.671,12.962h1.011v2.954h-2.862s-3.252-8.236-2.921-11.533c0,0-.282,8.965-2.974,11.533h-2.395v-2.034h1.044l.452-13.882.592,13.882S200.106,264.2,200.62,259.183Z" transform="translate(77.798 57.696)" fill="#e6eaf0"/><path d="M203.872,277.946l-.079-.1v.1Z" transform="translate(104.825 116.362)" fill="#fdfeff"/><path d="M227.048,294.889v-3.6h-2.415V287.27H222.35v-3.931H219.4v-5.008h-1.475v-3.447h-8.857v3.447h-1.52v5.008h-3.488v3.931h-1.877v4.014H199.1v3.6h-1.21v5.1h3.049a6.389,6.389,0,0,0,5.588-3.293L213.1,282l7.3,14.727a6.385,6.385,0,0,0,5.572,3.264h3.343v-5.1Z" transform="translate(86.268 107.038)" fill="#e6eaf0"/><g transform="translate(309.078 406.177)"><path d="M206.158,287.475h0a2.252,2.252,0,0,1-2.253-2.249v-4.486h4.507v4.486A2.252,2.252,0,0,1,206.158,287.475Z" transform="translate(-203.904 -280.739)" fill="#bfc1cb"/><rect width="4.593" height="4.059" transform="translate(0.108 38.218)" fill="#bfc1cb"/><rect width="1.36" height="32.777" transform="translate(1.518 5.441)" fill="#bfc1cb"/></g><g transform="translate(284.574 406.177)"><path d="M200.238,287.475h0a2.249,2.249,0,0,1-2.249-2.249v-4.486h4.5v4.486A2.252,2.252,0,0,1,200.238,287.475Z" transform="translate(-197.989 -280.739)" fill="#bfc1cb"/><rect width="4.593" height="4.059" transform="translate(0.105 38.218)" fill="#bfc1cb"/><rect width="1.36" height="32.777" transform="translate(1.515 5.441)" fill="#bfc1cb"/></g><g transform="translate(91.968 123.832)" fill="#999492" stroke-miterlimit="10"><path d="M 215.3505859375 322.7720336914063 L 215.1729583740234 322.7703247070313 L 199.7003326416016 322.6213073730469 L 199.5230865478516 322.6195983886719 L 199.5261077880859 322.4423828125 L 199.9859466552734 295.4822692871094 C 199.9865264892578 295.4550476074219 200.0522155761719 292.7895202636719 200.9919128417969 289.5812683105469 C 201.54443359375 287.6948547363281 202.2867279052734 285.9904174804688 203.1981811523438 284.5152893066406 C 204.3405456542969 282.6664733886719 205.753173828125 281.1747436523438 207.3968200683594 280.0815124511719 L 207.4692535400391 280.0333557128906 L 207.551513671875 280.0616455078125 C 207.6162719726563 280.0839538574219 209.1577911376953 280.632568359375 210.898681640625 282.8119506835938 C 211.9136962890625 284.0826416015625 212.7867889404297 285.6496887207031 213.4936981201172 287.4695434570313 C 214.3746337890625 289.7374877929688 214.9989929199219 292.4079895019531 215.3494110107422 295.4068298339844 L 215.3505859375 295.4169921875 L 215.3505859375 295.42724609375 L 215.3505859375 322.5943908691406 L 215.3505859375 322.7720336914063 Z" stroke="none"/><path d="M 215.1746520996094 322.5943908691406 L 215.1746520996094 295.42724609375 C 213.64599609375 282.3449096679688 207.4942626953125 280.22802734375 207.4942626953125 280.22802734375 C 200.3814392089844 284.9588623046875 200.161865234375 295.4852600097656 200.161865234375 295.4852600097656 L 199.7020263671875 322.4453735351563 L 215.1746520996094 322.5943908691406 M 215.5265350341797 322.9496765136719 L 215.1712646484375 322.9462585449219 L 199.6986389160156 322.7972412109375 L 199.3441467285156 322.7938232421875 L 199.3501892089844 322.4393615722656 L 199.8100280761719 295.4792785644531 C 199.8123321533203 295.3685607910156 199.8768005371094 292.762451171875 200.8230590820313 289.5317993164063 C 201.3800048828125 287.6302490234375 202.1287536621094 285.9113464355469 203.0484924316406 284.4228210449219 C 204.2042846679688 282.5522766113281 205.6344757080078 281.0423889160156 207.2993774414063 279.9350280761719 L 207.4442443847656 279.8386840820313 L 207.6087646484375 279.8952941894531 C 207.6755065917969 279.9182434082031 209.2637176513672 280.4832763671875 211.0361480712891 282.7021484375 C 212.0623168945313 283.9867858886719 212.9443359375 285.5693359375 213.6576995849609 287.4058532714844 C 214.5440521240234 289.6876831054688 215.1720123291016 292.3727416992188 215.5241546630859 295.3864135742188 L 215.5265350341797 295.4067687988281 L 215.5265350341797 295.42724609375 L 215.5265350341797 322.5943908691406 L 215.5265350341797 322.9496765136719 Z" stroke="none" fill="#bfc1cb"/></g><rect width="17.888" height="2.415" transform="translate(290.329 445.649)" fill="#bfc1cb"/><path d="M199.823,277.4l-4.548,10.986v63.5h9.1v-63.5Z" transform="translate(78.056 114.955)" fill="#7989ab"/><path d="M197.471,264.689l5.744-6.439,4.506,6.439h3.358l3.534-6.439,3.888,6.439h3.888l3.623-6.439,5.626,6.439" transform="translate(84.956 54.762)" fill="none" stroke="#c9cdd5" stroke-linecap="round" stroke-linejoin="round" stroke-width="0.35"/><rect width="36.434" height="2.159" transform="translate(282.427 448.063)" fill="#bfc1cb"/><rect width="7.378" height="82.426" transform="translate(312.94 467.92)" fill="#c1c4cc"/><rect width="7.378" height="82.426" transform="translate(331.471 467.92)" fill="#c1c4cc"/><g transform="translate(320.318 467.92)"><rect width="10.594" height="81.109" fill="#8194b3"/><g transform="translate(1.571 3.939)"><path d="M213.671,299.825a3.233,3.233,0,1,1-3.235-3.231A3.237,3.237,0,0,1,213.671,299.825Z" transform="translate(-206.345 -296.594)" fill="#e6eaf0"/><g transform="translate(0 10.983)"><rect width="1.203" height="11.959" fill="#e6eaf0"/><rect width="1.203" height="11.959" transform="translate(3.49)" fill="#e6eaf0"/><rect width="1.203" height="11.959" transform="translate(6.95)" fill="#e6eaf0"/></g></g></g><rect width="7.378" height="82.426" transform="translate(258.757 467.92)" fill="#c1c4cc"/><rect width="7.378" height="82.426" transform="translate(280.204 467.92)" fill="#c1c4cc"/><g transform="translate(266.135 467.92)"><rect width="10.594" height="81.109" fill="#8194b3"/><g transform="translate(1.572 3.939)"><path d="M200.587,299.825a3.231,3.231,0,1,1-3.231-3.231A3.234,3.234,0,0,1,200.587,299.825Z" transform="translate(-193.265 -296.594)" fill="#e6eaf0"/><g transform="translate(0 10.983)"><rect width="1.203" height="11.959" fill="#e6eaf0"/><rect width="1.203" height="11.959" transform="translate(3.49)" fill="#e6eaf0"/><rect width="1.203" height="11.959" transform="translate(6.95)" fill="#e6eaf0"/></g></g></g><g transform="translate(288.634 469.775)"><path d="M210.618,296.091s-12.536,4-11.6,21.02v40.125H221.36V316.7S223.075,300.805,210.618,296.091Z" transform="translate(-198.969 -296.091)" fill="#e6eaf0"/><g transform="translate(2.776 17.784)"><path d="M203.653,338.543h-4.014V303.107a2.008,2.008,0,0,1,2.009-2.009h0a2.008,2.008,0,0,1,2.005,2.009Z" transform="translate(-199.639 -298.14)" fill="#99afd4"/><path d="M206.517,340.787h-4.971a.366.366,0,0,1-.365-.369v-37.18a2.854,2.854,0,0,1,2.85-2.854h0a2.857,2.857,0,0,1,2.854,2.854v37.18A.369.369,0,0,1,206.517,340.787Z" transform="translate(-194.793 -300.384)" fill="#99afd4"/><path d="M.362,0H2.778A.362.362,0,0,1,3.14.362V36.845a.047.047,0,0,1-.047.047H.047A.047.047,0,0,1,0,36.845V.362A.362.362,0,0,1,.362,0Z" transform="translate(13.777 3.511)" fill="#99afd4"/></g></g><line y1="6.195" transform="translate(282.951 552.214)" fill="none" stroke="#c1c4cc" stroke-miterlimit="10" stroke-width="0.352"/><line y1="6.195" transform="translate(286.719 552.214)" fill="none" stroke="#c1c4cc" stroke-miterlimit="10" stroke-width="0.352"/><line y1="6.195" transform="translate(290.487 552.214)" fill="none" stroke="#c1c4cc" stroke-miterlimit="10" stroke-width="0.352"/><line y1="6.195" transform="translate(294.255 552.214)" fill="none" stroke="#c1c4cc" stroke-miterlimit="10" stroke-width="0.352"/><line y1="6.195" transform="translate(298.023 552.214)" fill="none" stroke="#c1c4cc" stroke-miterlimit="10" stroke-width="0.352"/><line y1="6.195" transform="translate(301.791 552.214)" fill="none" stroke="#c1c4cc" stroke-miterlimit="10" stroke-width="0.352"/><line y1="6.195" transform="translate(305.559 552.214)" fill="none" stroke="#c1c4cc" stroke-miterlimit="10" stroke-width="0.352"/><line y1="6.195" transform="translate(309.327 552.214)" fill="none" stroke="#c1c4cc" stroke-miterlimit="10" stroke-width="0.352"/><line y1="6.195" transform="translate(313.095 552.214)" fill="none" stroke="#c1c4cc" stroke-miterlimit="10" stroke-width="0.352"/><line y1="6.195" transform="translate(316.863 552.214)" fill="none" stroke="#c1c4cc" stroke-miterlimit="10" stroke-width="0.352"/><g transform="translate(282.951 555.312)"><line y2="31.056" fill="none" stroke="#c1c4cc" stroke-miterlimit="10" stroke-width="0.035"/><line y2="31.056" transform="translate(3.768)" fill="none" stroke="#c1c4cc" stroke-miterlimit="10" stroke-width="0.035"/><line y2="31.056" transform="translate(7.536)" fill="none" stroke="#c1c4cc" stroke-miterlimit="10" stroke-width="0.035"/><line y2="31.056" transform="translate(11.304)" fill="none" stroke="#c1c4cc" stroke-miterlimit="10" stroke-width="0.035"/><line y2="31.056" transform="translate(15.072)" fill="none" stroke="#c1c4cc" stroke-miterlimit="10" stroke-width="0.035"/><line y2="31.056" transform="translate(18.84)" fill="none" stroke="#c1c4cc" stroke-miterlimit="10" stroke-width="0.035"/><line y2="31.056" transform="translate(22.608)" fill="none" stroke="#c1c4cc" stroke-miterlimit="10" stroke-width="0.035"/><line y2="31.056" transform="translate(26.376)" fill="none" stroke="#c1c4cc" stroke-miterlimit="10" stroke-width="0.035"/><line y2="31.056" transform="translate(30.144)" fill="none" stroke="#c1c4cc" stroke-miterlimit="10" stroke-width="0.035"/><line y2="31.056" transform="translate(33.912)" fill="none" stroke="#c1c4cc" stroke-miterlimit="10" stroke-width="0.035"/></g><path d="M1.18,0H19.492a1.18,1.18,0,0,1,1.18,1.18V22.305a0,0,0,0,1,0,0H0a0,0,0,0,1,0,0V1.18A1.18,1.18,0,0,1,1.18,0Z" transform="translate(288.655 612.292)" fill="#2b1506"/><path d="M198.974,343.829h20.672s.92-8.683-6.914-16.691a4.573,4.573,0,0,0-6.467.012A24.888,24.888,0,0,0,198.974,343.829Z" transform="translate(89.681 267.064)" fill="#e6eaf0"/><path d="M234.947,351.123s-3.074-18.658-18.737-26.633c0,0-16.293,4.213-19.317,26.633" transform="translate(83.141 262.93)" fill="none" stroke="#c1c4cc" stroke-miterlimit="10" stroke-width="0.704"/><path d="M235.586,258.211H198.24a1.277,1.277,0,0,1-1.28-1.276h0a1.278,1.278,0,0,1,1.28-1.28h37.346a1.277,1.277,0,0,1,1.276,1.28h0A1.277,1.277,0,0,1,235.586,258.211Z" transform="translate(83.351 46.609)" fill="#8194b3"/><path d="M225.316,252.9H199.168a1.28,1.28,0,0,1-1.28-1.276h0a1.281,1.281,0,0,1,1.28-1.28h26.148a1.281,1.281,0,0,1,1.28,1.28h0A1.28,1.28,0,0,1,225.316,252.9Z" transform="translate(86.268 29.922)" fill="#8194b3"/><path d="M225.316,255.309H199.168a1.28,1.28,0,0,1-1.28-1.276h0a1.281,1.281,0,0,1,1.28-1.28h26.148a1.281,1.281,0,0,1,1.28,1.28h0A1.28,1.28,0,0,1,225.316,255.309Z" transform="translate(86.268 37.489)" fill="#8194b3"/><path d="M220.568,250.555H200.05a1.276,1.276,0,0,1-1.276-1.276h0A1.277,1.277,0,0,1,200.05,248h20.518a1.278,1.278,0,0,1,1.28,1.28h0A1.277,1.277,0,0,1,220.568,250.555Z" transform="translate(89.052 22.549)" fill="#8194b3"/><g transform="translate(262.957 490.518)"><g transform="translate(0.458)"><path d="M197.184,304.191s-.166,6.409,2.249,11.247a23.62,23.62,0,0,1,2.026,10.68h-8.554a23.62,23.62,0,0,1,2.026-10.68c2.419-4.838,2.249-11.247,2.249-11.247" transform="translate(-192.881 -291.38)" fill="#8194b3" stroke="#e0e4ed" stroke-miterlimit="10" stroke-width="0.396"/><g transform="translate(1.209)"><line y2="14.226" transform="translate(3.095)" stroke-width="0.352" stroke="#e0e4ed" stroke-linecap="round" stroke-linejoin="round" fill="#8194b3"/><line x2="6.19" transform="translate(0 5.057)" stroke-width="0.352" stroke="#e0e4ed" stroke-linecap="round" stroke-linejoin="round" fill="#8194b3"/></g></g><rect width="9.523" height="15.359" transform="translate(0 37.428)" fill="#99afd4"/><path d="M200.054,321.9h-6.976V311.448a.633.633,0,0,1,.949-.576,4.943,4.943,0,0,0,5.1-.021.633.633,0,0,1,.932.588Z" transform="translate(-191.805 -270.707)" fill="#8194b3" stroke="#c9cdd5" stroke-miterlimit="10" stroke-width="0.176"/><g transform="translate(0.458 20.111)"><path d="M197.184,305.953a17.829,17.829,0,0,0,2.249,8.886,15.176,15.176,0,0,1,2.026,8.43h-8.554a15.176,15.176,0,0,1,2.026-8.43,17.778,17.778,0,0,0,2.249-8.886" transform="translate(-192.881 -305.953)" fill="#8194b3" stroke="#e0e4ed" stroke-miterlimit="10" stroke-width="0.352"/><path d="M195.739,309.532a1.054,1.054,0,1,1-1.056-1.056A1.055,1.055,0,0,1,195.739,309.532Z" transform="translate(-190.528 -298.024)" fill="#e6eaf0"/></g></g><g transform="translate(272.063 490.518)"><g transform="translate(0.458)"><path d="M199.382,304.191s-.17,6.409,2.249,11.247a23.62,23.62,0,0,1,2.026,10.68H195.1a23.621,23.621,0,0,1,2.026-10.68c2.419-4.838,2.249-11.247,2.249-11.247" transform="translate(-195.079 -291.38)" fill="#8194b3" stroke="#e0e4ed" stroke-miterlimit="10" stroke-width="0.396"/><g transform="translate(1.209)"><line y2="14.226" transform="translate(3.095)" stroke-width="0.352" stroke="#e0e4ed" stroke-linecap="round" stroke-linejoin="round" fill="#8194b3"/><line x2="6.189" transform="translate(0 5.057)" stroke-width="0.352" stroke="#e0e4ed" stroke-linecap="round" stroke-linejoin="round" fill="#8194b3"/></g></g><rect width="9.523" height="15.359" transform="translate(0 37.428)" fill="#99afd4"/><path d="M202.252,321.9h-6.976V311.448a.633.633,0,0,1,.949-.576,4.943,4.943,0,0,0,5.1-.021.633.633,0,0,1,.932.588Z" transform="translate(-194.003 -270.707)" fill="#8194b3" stroke="#c9cdd5" stroke-miterlimit="10" stroke-width="0.176"/><g transform="translate(0.458 20.111)"><path d="M199.382,305.953a17.778,17.778,0,0,0,2.249,8.886,15.176,15.176,0,0,1,2.026,8.43H195.1a15.176,15.176,0,0,1,2.026-8.43,17.778,17.778,0,0,0,2.249-8.886" transform="translate(-195.079 -305.953)" fill="#8194b3" stroke="#e0e4ed" stroke-miterlimit="10" stroke-width="0.352"/><path d="M197.937,309.532a1.054,1.054,0,1,1-1.056-1.056A1.055,1.055,0,0,1,197.937,309.532Z" transform="translate(-192.726 -298.024)" fill="#e6eaf0"/></g></g><path d="M218,247.9H200.352a1.276,1.276,0,0,1-1.276-1.276h0a1.277,1.277,0,0,1,1.276-1.28H218a1.277,1.277,0,0,1,1.276,1.28h0A1.276,1.276,0,0,1,218,247.9Z" transform="translate(90.001 14.206)" fill="#8194b3"/><path d="M201.115,275.347s1.926,14.039,4.114,18.9l.514-13.878.771,12.958h1.156v2.958h-3.277s-3.72-8.24-3.339-11.537c0,0-.323,8.965-3.405,11.537h-2.738v-2.038h1.2l.514-13.878.675,13.878S200.531,280.368,201.115,275.347Z" transform="translate(76.906 108.493)" fill="#e6eaf0"/><g transform="translate(315.582 383.84)"><path d="M210.463,277.4l-4.548,10.986v63.5h9.1v-63.5Z" transform="translate(-204.086 -268.885)" fill="#7989ab"/><path d="M211.68,275.347s1.926,14.039,4.109,18.9l.514-13.878.771,12.958h1.156v2.958h-3.273s-3.72-8.24-3.343-11.537c0,0-.319,8.965-3.4,11.537h-2.738v-2.038h1.2l.514-13.878.675,13.878S211.1,280.368,211.68,275.347Z" transform="translate(-205.474 -275.347)" fill="#e6eaf0"/></g><g transform="translate(322.635 398.323)"><g transform="translate(1.887)"><path d="M216.082,293.3l-3.466-12.356-3.87,12.356h-.669v50.394h8.606V293.3Z" transform="translate(-206.236 -272.242)" fill="#99afd4"/><path d="M211.715,331.483h-2.892v-46.14a1.444,1.444,0,0,1,1.446-1.446h0a1.444,1.444,0,0,1,1.446,1.446Z" transform="translate(-203.889 -262.96)" fill="#e6eaf0"/><path d="M213.842,278.843s1.926,14.039,4.109,18.9l.514-13.882.771,12.962h1.156v2.954h-3.277s-3.72-8.236-3.339-11.533c0,0-.319,8.965-3.405,11.533h-2.738v-2.034h1.2l.514-13.882.679,13.882S213.254,283.864,213.842,278.843Z" transform="translate(-207.632 -278.843)" fill="#e6eaf0"/></g><g transform="translate(0 21.658)"><path d="M215.182,293.554l-3.466-8.1-3.87,8.1h-.669V326.59h8.606V293.554Z" transform="translate(-207.177 -279.725)" fill="#99afd4"/><path d="M210.762,320.021h-2.9V288.885a1.448,1.448,0,0,1,1.45-1.446h0a1.447,1.447,0,0,1,1.446,1.446Z" transform="translate(-205.01 -273.487)" fill="#e6eaf0"/><path d="M211.328,284.071s1.28,9.354,2.738,12.593l.34-9.246.514,8.633h.771v1.972h-2.183s-2.477-5.489-2.225-7.689c0,0-.211,5.974-2.266,7.689h-1.827v-1.359h.8l.34-9.246.452,9.246S210.938,287.418,211.328,284.071Z" transform="translate(-207.138 -284.071)" fill="#e6eaf0"/></g><g transform="translate(6.887 43.804)"><path d="M213.152,289.965s.1,13.7-4.263,13.19v10.671h9.176V303.661S215.414,305.268,213.152,289.965Z" transform="translate(-208.682 -287.695)" fill="#99afd4"/><path d="M213.574,289.417s1.471,10.709,3.136,14.412l.389-10.584.588,9.884h.882v2.254h-2.5s-2.838-6.28-2.548-8.795c0,0-.244,6.835-2.593,8.795h-2.092v-1.553h.915l.389-10.584.518,10.584S213.127,293.245,213.574,289.417Z" transform="translate(-208.839 -289.417)" fill="#e6eaf0"/><path d="M212.564,302.881h-2.892V294.9a1.448,1.448,0,0,1,1.446-1.45h0a1.451,1.451,0,0,1,1.446,1.45Z" transform="translate(-206.221 -276.749)" fill="#e6eaf0"/></g></g><g transform="translate(260.207 398.323)"><g transform="translate(1.972)"><path d="M193.742,293.3l3.466-12.356,3.87,12.356h.669v50.394h-8.606V293.3Z" transform="translate(-190.83 -272.242)" fill="#99afd4"/><path d="M193.774,331.483h2.892v-46.14a1.447,1.447,0,0,0-1.446-1.446h0a1.444,1.444,0,0,0-1.446,1.446Z" transform="translate(-188.84 -262.96)" fill="#e6eaf0"/><path d="M199.133,278.843s-1.926,14.039-4.109,18.9l-.514-13.882-.771,12.962h-1.156v2.954h3.273s3.72-8.236,3.343-11.533c0,0,.319,8.965,3.4,11.533h2.738v-2.034h-1.2l-.514-13.882-.675,13.882S199.717,283.864,199.133,278.843Z" transform="translate(-192.583 -278.843)" fill="#e6eaf0"/></g><g transform="translate(8.011 21.658)"><path d="M194.641,293.554l3.467-8.1,3.87,8.1h.669V326.59h-8.606V293.554Z" transform="translate(-194.041 -279.725)" fill="#99afd4"/><path d="M194.73,320.021h2.891V288.885a1.444,1.444,0,0,0-1.446-1.446h0a1.444,1.444,0,0,0-1.446,1.446Z" transform="translate(-191.875 -273.487)" fill="#e6eaf0"/><path d="M198.419,284.071s-1.284,9.354-2.738,12.593l-.344-9.246-.514,8.633h-.771v1.972h2.183s2.477-5.489,2.225-7.689c0,0,.215,5.974,2.27,7.689h1.823v-1.359h-.8l-.344-9.246-.452,9.246S198.809,287.418,198.419,284.071Z" transform="translate(-194.002 -284.071)" fill="#e6eaf0"/></g><g transform="translate(0 43.804)"><path d="M197.1,289.965s-.1,13.7,4.263,13.19v10.671h-9.172V303.661S194.838,305.268,197.1,289.965Z" transform="translate(-191.843 -287.695)" fill="#99afd4"/><path d="M197.1,289.417s-1.471,10.709-3.136,14.412l-.394-10.584-.588,9.884h-.878v2.254h2.5s2.833-6.28,2.548-8.795c0,0,.244,6.835,2.593,8.795h2.088v-1.553h-.911l-.393-10.584-.514,10.584S197.546,293.245,197.1,289.417Z" transform="translate(-192.107 -289.417)" fill="#e6eaf0"/><path d="M192.925,302.881h2.892V294.9a1.448,1.448,0,0,0-1.446-1.45h0a1.448,1.448,0,0,0-1.446,1.45Z" transform="translate(-189.536 -276.749)" fill="#e6eaf0"/></g></g><g transform="translate(293.684 408.773)"><path d="M211.841,287.843a5.827,5.827,0,1,1-5.824-5.828A5.825,5.825,0,0,1,211.841,287.843Z" transform="translate(-200.188 -279.328)" fill="#fdfeff"/><g transform="translate(0.637)"><text transform="translate(7.205 1.263)" font-size="1" font-family="MyriadPro-Regular, Myriad Pro"><tspan x="0" y="0">1</tspan></text><text transform="translate(2.686 1.263)" font-size="1" font-family="MyriadPro-Regular, Myriad Pro"><tspan x="0" y="0">11</tspan></text><text transform="translate(7.205 10.135)" font-size="1" font-family="MyriadPro-Regular, Myriad Pro"><tspan x="0" y="0">5</tspan></text><text transform="translate(3.297 10.135)" font-size="1" font-family="MyriadPro-Regular, Myriad Pro"><tspan x="0" y="0">7</tspan></text><text transform="translate(5.093 10.721)" font-size="1" font-family="MyriadPro-Regular, Myriad Pro"><tspan x="0" y="0">6</tspan></text><text transform="translate(4.588 1)" font-size="1" font-family="MyriadPro-Regular, Myriad Pro"><tspan x="0" y="0">12</tspan></text><text transform="translate(9.116 2.861)" font-size="1" font-family="MyriadPro-Regular, Myriad Pro"><tspan x="0" y="0">2</tspan></text><text transform="translate(0.87 2.926)" font-size="1" font-family="MyriadPro-Regular, Myriad Pro"><tspan x="0" y="0">10</tspan></text><text transform="translate(8.71 8.076)" font-size="1" font-family="MyriadPro-Regular, Myriad Pro"><tspan x="0" y="0">4</tspan></text><text transform="translate(1.011 8.076)" font-size="1" font-family="MyriadPro-Regular, Myriad Pro"><tspan x="0" y="0">8</tspan></text><text transform="translate(9.705 5.584)" font-size="1" font-family="MyriadPro-Regular, Myriad Pro"><tspan x="0" y="0">3</tspan></text><text transform="translate(0 5.584)" font-size="1" font-family="MyriadPro-Regular, Myriad Pro"><tspan x="0" y="0">9</tspan></text></g><g transform="translate(5.259 4.921)"><path d="M201.97,283.581a.213.213,0,1,1-.211-.211A.212.212,0,0,1,201.97,283.581Z" transform="translate(-201.189 -279.988)" fill="#bfc1cb"/><line y2="3.24" transform="translate(0.568 0.529)" fill="none" stroke="#a5abb9" stroke-miterlimit="10" stroke-width="0.053"/><path d="M202.025,282.554l-.568.864.568-.319.479.319Z" transform="translate(-201.458 -282.554)" fill="#8194b3"/><g transform="translate(0.587 3.592)"><line x1="2.162" y1="2.413" fill="none" stroke="#a5abb9" stroke-miterlimit="10" stroke-width="0.053"/><path d="M202.914,284.874l-.154-1.022-.21.616-.57.082Z" transform="translate(-200.4 -282.067)" fill="#8194b3"/></g></g></g><rect width="29.515" height="2.147" transform="translate(258.757 466.846)" fill="#bfc1cb"/><rect width="29.515" height="2.147" transform="translate(310.611 466.846)" fill="#bfc1cb"/><path d="M227.048,310.56v-3.6h-2.415v-4.014H222.35V299.01H219.4V294h-1.475v-3.443h-8.857V294h-1.52v5.008h-3.488v3.931h-1.877v4.014H199.1v3.6h-1.21v5.1h3.049a6.38,6.38,0,0,0,5.588-3.293l6.57-14.7,7.3,14.731a6.39,6.39,0,0,0,5.572,3.26h3.343v-5.1Z" transform="translate(86.268 156.299)" fill="#bfc1cb"/><g transform="translate(278.7 495.29)"><g transform="translate(0.461)"><path d="M200.981,305.342s-.166,6.409,2.249,11.251a23.62,23.62,0,0,1,2.026,10.68h-8.55a23.651,23.651,0,0,1,2.022-10.68c2.419-4.843,2.249-11.251,2.249-11.251" transform="translate(-196.682 -292.534)" fill="#8194b3" stroke="#e0e4ed" stroke-miterlimit="10" stroke-width="0.396"/><g transform="translate(1.205)"><line y2="14.226" transform="translate(3.095)" stroke-width="0.352" stroke="#e0e4ed" stroke-linecap="round" stroke-linejoin="round" fill="#8194b3"/><line x2="6.189" transform="translate(0 5.057)" stroke-width="0.352" stroke="#e0e4ed" stroke-linecap="round" stroke-linejoin="round" fill="#8194b3"/></g></g><rect width="9.523" height="15.359" transform="translate(0 37.428)" fill="#99afd4"/><path d="M203.858,323.058h-6.98V312.6a.634.634,0,0,1,.949-.576,4.929,4.929,0,0,0,5.1-.017.633.633,0,0,1,.936.584Z" transform="translate(-195.606 -271.86)" fill="#8194b3" stroke="#c9cdd5" stroke-miterlimit="10" stroke-width="0.176"/><g transform="translate(0.461 20.112)"><path d="M200.981,307.105a17.815,17.815,0,0,0,2.249,8.882,15.188,15.188,0,0,1,2.026,8.435h-8.55a15.207,15.207,0,0,1,2.022-8.435,17.767,17.767,0,0,0,2.249-8.882" transform="translate(-196.682 -307.105)" fill="#8194b3" stroke="#e0e4ed" stroke-miterlimit="10" stroke-width="0.352"/><path d="M199.539,310.684a1.054,1.054,0,1,1-1.056-1.056A1.055,1.055,0,0,1,199.539,310.684Z" transform="translate(-194.333 -299.176)" fill="#e6eaf0"/></g></g><g transform="translate(259.373 495.29)"><g transform="translate(0.459)"><path d="M196.319,305.342s-.17,6.409,2.249,11.251a23.585,23.585,0,0,1,2.022,10.68h-8.55a23.619,23.619,0,0,1,2.026-10.68c2.415-4.843,2.249-11.251,2.249-11.251" transform="translate(-192.016 -292.534)" fill="#8194b3" stroke="#e0e4ed" stroke-miterlimit="10" stroke-width="0.396"/><g transform="translate(1.208)"><line y2="14.226" transform="translate(3.095)" stroke-width="0.352" stroke="#e0e4ed" stroke-linecap="round" stroke-linejoin="round" fill="#8194b3"/><line x2="6.19" transform="translate(0 5.057)" stroke-width="0.352" stroke="#e0e4ed" stroke-linecap="round" stroke-linejoin="round" fill="#8194b3"/></g></g><rect width="9.523" height="15.359" transform="translate(0 37.428)" fill="#99afd4"/><path d="M199.192,323.058h-6.98V312.6a.637.637,0,0,1,.953-.576,4.929,4.929,0,0,0,5.1-.017.631.631,0,0,1,.932.584Z" transform="translate(-190.943 -271.86)" fill="#8194b3" stroke="#c9cdd5" stroke-miterlimit="10" stroke-width="0.176"/><g transform="translate(0.459 20.112)"><path d="M196.319,307.105a17.767,17.767,0,0,0,2.249,8.882,15.188,15.188,0,0,1,2.026,8.435H192.04a15.188,15.188,0,0,1,2.026-8.435,17.816,17.816,0,0,0,2.249-8.882" transform="translate(-192.016 -307.105)" fill="#8194b3" stroke="#e0e4ed" stroke-miterlimit="10" stroke-width="0.352"/><path d="M194.869,310.684a1.052,1.052,0,1,1-1.052-1.056A1.054,1.054,0,0,1,194.869,310.684Z" transform="translate(-189.663 -299.176)" fill="#e6eaf0"/></g></g><g transform="translate(314.528 490.518)"><g transform="translate(0.458)"><path d="M209.633,304.191s-.17,6.409,2.249,11.247a23.62,23.62,0,0,1,2.026,10.68h-8.554a23.62,23.62,0,0,1,2.026-10.68c2.419-4.838,2.249-11.247,2.249-11.247" transform="translate(-205.33 -291.38)" fill="#8194b3" stroke="#e0e4ed" stroke-miterlimit="10" stroke-width="0.396"/><g transform="translate(1.208)"><line y2="14.226" transform="translate(3.095)" stroke-width="0.352" stroke="#e0e4ed" stroke-linecap="round" stroke-linejoin="round" fill="#8194b3"/><line x2="6.19" transform="translate(0 5.057)" stroke-width="0.352" stroke="#e0e4ed" stroke-linecap="round" stroke-linejoin="round" fill="#8194b3"/></g></g><rect width="9.523" height="15.359" transform="translate(0 37.428)" fill="#99afd4"/><path d="M212.5,321.9h-6.976V311.448a.633.633,0,0,1,.949-.576,4.943,4.943,0,0,0,5.1-.021.633.633,0,0,1,.932.588Z" transform="translate(-204.254 -270.707)" fill="#8194b3" stroke="#c9cdd5" stroke-miterlimit="10" stroke-width="0.176"/><g transform="translate(0.458 20.111)"><path d="M209.633,305.953a17.779,17.779,0,0,0,2.249,8.886,15.176,15.176,0,0,1,2.026,8.43h-8.554a15.176,15.176,0,0,1,2.026-8.43,17.779,17.779,0,0,0,2.249-8.886" transform="translate(-205.33 -305.953)" fill="#8194b3" stroke="#e0e4ed" stroke-miterlimit="10" stroke-width="0.352"/><path d="M208.188,309.532a1.054,1.054,0,1,1-1.056-1.056A1.055,1.055,0,0,1,208.188,309.532Z" transform="translate(-202.977 -298.024)" fill="#e6eaf0"/></g></g><g transform="translate(323.634 490.518)"><g transform="translate(0.458)"><path d="M211.831,304.191s-.17,6.409,2.249,11.247a23.621,23.621,0,0,1,2.026,10.68h-8.555a23.621,23.621,0,0,1,2.026-10.68c2.419-4.838,2.249-11.247,2.249-11.247" transform="translate(-207.528 -291.38)" fill="#8194b3" stroke="#e0e4ed" stroke-miterlimit="10" stroke-width="0.396"/><g transform="translate(1.209)"><line y2="14.226" transform="translate(3.095)" stroke-width="0.352" stroke="#e0e4ed" stroke-linecap="round" stroke-linejoin="round" fill="#8194b3"/><line x2="6.189" transform="translate(0 5.057)" stroke-width="0.352" stroke="#e0e4ed" stroke-linecap="round" stroke-linejoin="round" fill="#8194b3"/></g></g><rect width="9.523" height="15.359" transform="translate(0 37.428)" fill="#99afd4"/><path d="M214.7,321.9h-6.976V311.448a.633.633,0,0,1,.949-.576,4.943,4.943,0,0,0,5.1-.021.633.633,0,0,1,.932.588Z" transform="translate(-206.452 -270.707)" fill="#8194b3" stroke="#c9cdd5" stroke-miterlimit="10" stroke-width="0.176"/><g transform="translate(0.458 20.111)"><path d="M211.831,305.953a17.778,17.778,0,0,0,2.249,8.886,15.177,15.177,0,0,1,2.026,8.43h-8.555a15.176,15.176,0,0,1,2.026-8.43,17.778,17.778,0,0,0,2.249-8.886" transform="translate(-207.528 -305.953)" fill="#8194b3" stroke="#e0e4ed" stroke-miterlimit="10" stroke-width="0.352"/><path d="M210.386,309.532a1.054,1.054,0,1,1-1.056-1.056A1.055,1.055,0,0,1,210.386,309.532Z" transform="translate(-205.175 -298.024)" fill="#e6eaf0"/></g></g><g transform="translate(330.271 495.29)"><g transform="translate(0.457)"><path d="M213.433,305.342s-.166,6.409,2.249,11.251a23.62,23.62,0,0,1,2.026,10.68h-8.555a23.62,23.62,0,0,1,2.026-10.68c2.419-4.843,2.249-11.251,2.249-11.251" transform="translate(-209.13 -292.534)" fill="#8194b3" stroke="#e0e4ed" stroke-miterlimit="10" stroke-width="0.396"/><g transform="translate(1.208)"><line y2="14.226" transform="translate(3.095)" stroke-width="0.352" stroke="#e0e4ed" stroke-linecap="round" stroke-linejoin="round" fill="#8194b3"/><line x2="6.19" transform="translate(0 5.057)" stroke-width="0.352" stroke="#e0e4ed" stroke-linecap="round" stroke-linejoin="round" fill="#8194b3"/></g></g><rect width="9.522" height="15.359" transform="translate(0 37.428)" fill="#99afd4"/><path d="M216.3,323.058h-6.976V312.6a.634.634,0,0,1,.949-.576,4.929,4.929,0,0,0,5.1-.017.631.631,0,0,1,.932.584Z" transform="translate(-208.055 -271.86)" fill="#8194b3" stroke="#c9cdd5" stroke-miterlimit="10" stroke-width="0.176"/><g transform="translate(0.457 20.112)"><path d="M213.433,307.105a17.816,17.816,0,0,0,2.249,8.882,15.188,15.188,0,0,1,2.026,8.435h-8.555a15.189,15.189,0,0,1,2.026-8.435,17.765,17.765,0,0,0,2.249-8.882" transform="translate(-209.13 -307.105)" fill="#8194b3" stroke="#e0e4ed" stroke-miterlimit="10" stroke-width="0.352"/><path d="M211.988,310.684a1.054,1.054,0,1,1-1.056-1.056A1.055,1.055,0,0,1,211.988,310.684Z" transform="translate(-206.777 -299.176)" fill="#e6eaf0"/></g></g><g transform="translate(310.944 495.29)"><g transform="translate(0.459)"><path d="M208.768,305.342s-.17,6.409,2.249,11.251a23.65,23.65,0,0,1,2.022,10.68h-8.55a23.621,23.621,0,0,1,2.026-10.68c2.415-4.843,2.249-11.251,2.249-11.251" transform="translate(-204.465 -292.534)" fill="#8194b3" stroke="#e0e4ed" stroke-miterlimit="10" stroke-width="0.396"/><g transform="translate(1.207)"><line y2="14.226" transform="translate(3.095)" stroke-width="0.352" stroke="#e0e4ed" stroke-linecap="round" stroke-linejoin="round" fill="#8194b3"/><line x2="6.19" transform="translate(0 5.057)" stroke-width="0.352" stroke="#e0e4ed" stroke-linecap="round" stroke-linejoin="round" fill="#8194b3"/></g></g><rect width="9.523" height="15.359" transform="translate(0 37.428)" fill="#99afd4"/><path d="M211.641,323.058h-6.98V312.6a.636.636,0,0,1,.953-.576,4.929,4.929,0,0,0,5.1-.017.631.631,0,0,1,.932.584Z" transform="translate(-203.391 -271.86)" fill="#8194b3" stroke="#c9cdd5" stroke-miterlimit="10" stroke-width="0.176"/><g transform="translate(0.459 20.112)"><path d="M208.768,307.105a17.766,17.766,0,0,0,2.249,8.882,15.206,15.206,0,0,1,2.022,8.435h-8.55a15.189,15.189,0,0,1,2.026-8.435,17.816,17.816,0,0,0,2.249-8.882" transform="translate(-204.465 -307.105)" fill="#8194b3" stroke="#e0e4ed" stroke-miterlimit="10" stroke-width="0.352"/><path d="M207.322,310.684a1.054,1.054,0,1,1-1.052-1.056A1.054,1.054,0,0,1,207.322,310.684Z" transform="translate(-202.115 -299.176)" fill="#e6eaf0"/></g></g><rect width="61.406" height="5.391" transform="translate(268.713 543.638)" fill="#e6eaf0"/><path d="M273.125,319.13H191.757v-4.137h81.368Z" transform="translate(67 233.084)" fill="#8194b3"/><g transform="translate(170.437 442.007)"><path d="M181.082,319.365h14.747L224.547,295.3V475.372H181.082Z" transform="translate(-136.984 -270.797)" fill="#8194b3"/><path d="M197.223,317.038l-24.061,26.389v63.645h24.061Z" transform="translate(-161.872 -202.496)" fill="#8194b3"/><g transform="translate(50.498 61.017)"><path d="M194.276,304.117s-12.536,4-11.6,21.02v40.125h22.341v-40.54S206.733,308.831,194.276,304.117Z" transform="translate(-182.627 -304.117)" fill="#e6eaf0"/><g transform="translate(2.776 17.784)"><path d="M187.311,346.569H183.3V311.133a2.008,2.008,0,0,1,2.009-2.009h0a2.008,2.008,0,0,1,2.005,2.009Z" transform="translate(-183.297 -306.166)" fill="#99afd4"/><path d="M190.175,348.813H185.2a.366.366,0,0,1-.365-.369v-37.18a2.851,2.851,0,0,1,2.85-2.854h0a2.852,2.852,0,0,1,2.854,2.854v37.18A.37.37,0,0,1,190.175,348.813Z" transform="translate(-178.451 -308.41)" fill="#99afd4"/><path d="M.362,0H2.778a.362.362,0,0,1,.362.362V36.844a.047.047,0,0,1-.047.047H.047A.047.047,0,0,1,0,36.844V.362A.362.362,0,0,1,.362,0Z" transform="translate(13.778 3.511)" fill="#99afd4"/></g></g><g transform="translate(43.489 145.298)"><path d="M1.18,0H19.492a1.18,1.18,0,0,1,1.18,1.18V22.305a0,0,0,0,1,0,0H0a0,0,0,0,1,0,0V1.18A1.18,1.18,0,0,1,1.18,0Z" transform="translate(8.617 24.871)" fill="#2b1506"/><path d="M183.015,343.8h20.672s.92-8.687-6.914-16.69a4.569,4.569,0,0,0-6.467.012A24.879,24.879,0,0,0,183.015,343.8Z" transform="translate(-174.398 -320.33)" fill="#e6eaf0"/><path d="M218.985,351.095s-3.074-18.658-18.733-26.633c0,0-16.3,4.213-19.317,26.633" transform="translate(-180.935 -324.462)" fill="none" stroke="#c1c4cc" stroke-miterlimit="10" stroke-width="0.704"/></g><g transform="translate(7.921 151.367)"><path d="M1.022,0H16.886a1.022,1.022,0,0,1,1.022,1.022v18.3a0,0,0,0,1,0,0H0a0,0,0,0,1,0,0V1.022A1.022,1.022,0,0,1,1.022,0Z" transform="translate(7.469 21.546)" fill="#2b1506"/><path d="M174.152,342.68h17.909s.8-7.523-5.99-14.458a3.96,3.96,0,0,0-5.6.012A21.557,21.557,0,0,0,174.152,342.68Z" transform="translate(-166.683 -322.348)" fill="#e6eaf0"/><path d="M205.316,349s-2.66-16.16-16.231-23.07c0,0-14.114,3.65-16.736,23.07" transform="translate(-172.349 -325.927)" fill="none" stroke="#c1c4cc" stroke-miterlimit="10" stroke-width="0.61"/></g><g transform="translate(77.044)"><path d="M199.041,303.886l-3.563-12.262-3.037,12.262H189.22V485.932h11.626V303.886Z" transform="translate(-188.453 -282.361)" fill="#99afd4"/><path d="M196.251,289.388s-2.125,15.469-4.528,20.821l-.568-15.286-.849,14.275h-1.272v3.252h3.608s4.1-9.072,3.679-12.705c0,0,.352,9.876,3.749,12.705h3.016v-2.241h-1.317l-.568-15.286-.746,15.286S196.894,294.922,196.251,289.388Z" transform="translate(-189.035 -289.388)" fill="#e6eaf0"/></g><g transform="translate(34.305 24.785)"><path d="M188.725,308.2l-3.563-10.821L182.125,308.2H178.9V468.866h11.625V308.2Z" transform="translate(-178.134 -289.076)" fill="#99afd4"/><path d="M185.934,295.371s-2.121,15.464-4.528,20.821l-.563-15.286-.849,14.271h-1.276v3.256h3.608s4.1-9.072,3.679-12.705c0,0,.356,9.876,3.749,12.705h3.016v-2.241h-1.317l-.568-15.286-.742,15.286S186.581,300.905,185.934,295.371Z" transform="translate(-178.718 -295.371)" fill="#e6eaf0"/></g><path d="M180.55,325.748l-4.008-10.966-2.592,10.966H170.73v88.414h11.626V325.748Z" transform="translate(-169.518 -209.586)" fill="#99afd4"/><path d="M177.649,312.4s-2.121,15.464-4.524,20.821l-.568-15.29-.849,14.275h-1.272v3.256h3.6s4.1-9.072,3.683-12.705c0,0,.352,9.876,3.749,12.705h3.016v-2.241h-1.322l-.563-15.29-.746,15.29S178.3,317.926,177.649,312.4Z" transform="translate(-170.437 -217.083)" fill="#e6eaf0"/></g><rect width="253.191" height="11.985" transform="translate(171.649 634.597)" fill="#c1c4cc"/></g></g></g></svg>